<svg width="330" height="401" viewBox="0 0 330 401" fill="none" xmlns="http://www.w3.org/2000/svg">
<path d="M158.03 236.999C148.35 346.299 194.334 333.354 211.767 333.319C229.2 333.285 291.424 286.059 291.424 286.059L263.456 216.527L158.03 236.999Z" fill="#7885DE"/>
<path d="M271.584 233.385L192.454 239.646L155.809 242.546C153.58 188.983 150.89 109.102 150.89 109.102C150.922 108.529 150.957 107.959 150.992 107.397C151.085 105.965 151.194 104.569 151.317 103.211C151.364 102.7 151.415 102.196 151.463 101.698C151.468 101.666 151.471 101.637 151.474 101.605C151.53 101.054 151.588 100.513 151.652 99.9727C151.679 99.7303 151.708 99.4933 151.737 99.2536C151.769 98.9926 151.801 98.7316 151.833 98.4707C156.637 59.9884 174.67 53.6847 190.004 62.4358C190.004 62.4358 206.188 42.0308 226.699 59.0989C232.816 48.164 257.597 42.4063 263.192 67.1921C269.613 95.6424 271.584 233.385 271.584 233.385Z" fill="#7885DE"/>
<path d="M196.039 296.808C194.225 295.508 190.747 293.862 189.698 293.077C185.08 289.62 180.422 286.222 174.638 285.077C168.723 283.905 162.869 285.689 158.259 289.199C157.727 285.447 156.816 266.664 155.809 242.546C153.58 188.983 150.89 109.102 150.89 109.102C150.922 108.529 150.957 107.96 150.992 107.398C151.085 105.965 151.194 104.569 151.317 103.211C151.364 102.7 151.415 102.197 151.463 101.699C151.468 101.667 151.471 101.637 151.474 101.605C151.663 99.7518 151.881 97.9701 152.129 96.2498C162.813 98.7318 170.931 106.79 176.22 116.9C183.391 130.607 182.475 146.176 183.69 161.161C184.161 166.948 184.869 172.466 187.413 177.75C190.369 183.888 194.83 188.876 195.631 195.891C197.245 210.027 193.921 225.321 192.454 239.646C192.305 241.1 192.174 242.544 192.071 243.977C191.157 256.56 191.78 268.773 194.22 281.135C194.867 284.414 195.562 287.7 195.868 291.031C196.033 292.824 195.69 295.058 196.039 296.808Z" fill="#12173F"/>
<path d="M203.738 301.934C225.791 231.22 278.502 210.224 278.502 210.224C278.502 210.224 273.661 133.475 302.708 123.72C331.755 113.965 320.995 175.387 324.223 215.406C327.451 255.425 311.315 275.327 282.268 329.652L203.738 301.934Z" fill="#7885DE"/>
<path d="M329.715 313.98C312.553 346.433 284.963 374.406 252.574 391.12L194.361 332.906L271.501 255.766L329.715 313.98Z" fill="#7885DE"/>
<path d="M309.264 316.174C314.274 314.147 317.896 309.735 320.82 305.087L304.577 288.845C303.77 290.214 302.987 291.593 302.234 292.994C299.584 297.905 294.276 306.608 295.432 312.515C296.553 318.243 304.745 318.004 309.264 316.174Z" fill="#12173F"/>
<path d="M218.665 294.946C218.036 294.946 217.527 294.438 217.527 293.809C217.527 247.566 265.232 217.587 270.67 214.32C271.208 214.005 271.909 214.173 272.231 214.709C272.556 215.246 272.38 215.944 271.842 216.269C266.513 219.468 219.799 248.818 219.799 293.809C219.802 294.438 219.293 294.946 218.665 294.946Z" fill="white"/>
<path d="M291.424 216.431C291.286 216.431 291.145 216.408 291.009 216.354L278.087 211.281C277.504 211.049 277.216 210.391 277.443 209.808C277.674 209.222 278.338 208.935 278.915 209.164L291.837 214.237C292.42 214.469 292.708 215.127 292.481 215.71C292.303 216.16 291.877 216.431 291.424 216.431Z" fill="white"/>
<path d="M226.694 184.815C226.119 184.815 225.623 184.378 225.567 183.792C225.479 182.924 216.952 96.5986 225.589 58.846C225.727 58.2389 226.332 57.842 226.95 57.9912C227.562 58.1297 227.943 58.7422 227.804 59.352C219.253 96.7425 227.74 182.703 227.826 183.566C227.89 184.189 227.434 184.746 226.808 184.81C226.771 184.815 226.731 184.815 226.694 184.815Z" fill="white"/>
<path d="M190.001 181.036C189.399 181.036 188.896 180.564 188.867 179.957C188.68 176.232 184.353 88.4253 188.88 62.2467C188.989 61.6289 189.586 61.2161 190.193 61.3199C190.811 61.4291 191.226 62.0177 191.12 62.6329C186.635 88.5665 191.088 178.932 191.133 179.843C191.165 180.471 190.683 181.004 190.057 181.033C190.041 181.036 190.02 181.036 190.001 181.036Z" fill="white"/>
<path d="M245.016 191.124C244.891 191.124 244.766 191.103 244.641 191.06C244.31 190.943 211.202 179.526 175.865 183.276C175.247 183.345 174.683 182.89 174.616 182.266C174.55 181.643 175.002 181.084 175.626 181.017C211.474 177.217 245.056 188.796 245.389 188.916C245.98 189.121 246.295 189.774 246.087 190.362C245.924 190.831 245.485 191.124 245.016 191.124Z" fill="white"/>
<path d="M321.704 160.33C321.201 160.33 320.74 159.994 320.607 159.486C320.474 158.977 317.312 146.905 318.942 132.913C319.017 132.287 319.595 131.848 320.202 131.914C320.825 131.986 321.273 132.551 321.201 133.174C319.619 146.743 322.769 158.78 322.804 158.9C322.966 159.504 322.604 160.13 322 160.29C321.898 160.317 321.797 160.33 321.704 160.33Z" fill="white"/>
<path d="M194.358 299.042C193.993 299.042 193.636 298.866 193.418 298.544C193.357 298.453 187.114 289.409 175.492 286.73C174.88 286.589 174.502 285.979 174.64 285.367C174.781 284.757 175.386 284.373 176.004 284.515C188.526 287.399 195.029 296.869 195.303 297.271C195.652 297.79 195.516 298.496 194.997 298.848C194.8 298.978 194.579 299.042 194.358 299.042Z" fill="white"/>
<path d="M17.7418 304.089C-1.41145 212.418 17.2278 212.789 36.895 157.39C49.3531 122.295 67.0283 138.764 73.83 161.236C82.0324 188.346 38.9669 313.49 17.7418 304.089Z" fill="#F7989C"/>
<path d="M57.7473 198.514C53.8911 201.638 48.5489 203.393 45.1001 206.893C41.7765 210.264 40.8364 215.244 40.437 219.774C39.5608 229.689 41.907 242.288 42.9749 252.118C51.5848 232.267 60.0057 207.779 66.1815 190.354C63.553 193.284 60.7833 196.054 57.7473 198.514Z" fill="#12173F"/>
<path d="M0.671021 319.013L19.2943 301.165C19.2943 301.165 33.2571 280.829 41.7711 255.766C51.7206 226.483 56.5036 191.188 57.3558 181.084C59.204 159.214 57.204 83.2565 73.8299 68.8623C90.4559 54.468 102.461 73.861 102.461 73.861C101.151 70.287 129.037 58.2736 135.817 88.2019C135.817 88.2019 159.876 76.2312 167.266 113.105C174.653 149.979 167.266 286.334 167.266 286.334C167.266 286.334 186.896 329.65 147.902 339.455L73.8299 400.018C36.5807 382.747 11.7949 356.047 0.671021 319.013Z" fill="#F7989C"/>
<path d="M93.119 191.67C92.5012 191.67 91.9952 191.175 91.9819 190.557C91.8993 186.189 90.0937 83.5015 101.697 73.0168C102.16 72.5987 102.88 72.6306 103.3 73.0993C103.718 73.5654 103.684 74.2818 103.218 74.7026C94.2216 82.8331 93.6943 161.057 94.2536 190.512C94.2642 191.14 93.7662 191.659 93.1403 191.67C93.1323 191.67 93.127 191.67 93.119 191.67Z" fill="#12173F"/>
<path d="M132.043 202.045C131.439 202.045 130.938 201.574 130.909 200.964C130.704 196.826 126.049 99.4801 134.904 87.5253C135.276 87.0247 135.99 86.9208 136.494 87.291C136.997 87.6638 137.103 88.3749 136.728 88.8809C130.027 97.9275 131.476 166.082 133.178 200.855C133.21 201.481 132.725 202.016 132.099 202.045C132.081 202.045 132.062 202.045 132.043 202.045Z" fill="#12173F"/>
<path d="M33.1905 271.375C32.9588 271.375 32.7244 271.303 32.522 271.157C32.0134 270.789 31.9042 270.078 32.2717 269.569C52.2319 242.11 55.441 193.254 57.3558 136.929C57.3771 136.301 57.8804 135.824 58.5302 135.832C59.1587 135.853 59.6487 136.381 59.6274 137.006C57.6993 193.713 54.445 242.927 34.1066 270.906C33.8882 271.212 33.542 271.375 33.1905 271.375Z" fill="#12173F"/>
<path d="M23.1452 215.939C22.8922 215.939 22.6366 215.854 22.4262 215.681L14.7217 209.377C14.237 208.98 14.1651 208.267 14.5619 207.779C14.9587 207.292 15.6725 207.223 16.1598 207.62L23.8643 213.923C24.3489 214.32 24.4209 215.034 24.024 215.521C23.8003 215.798 23.4754 215.939 23.1452 215.939Z" fill="white"/>
<path d="M33.6113 168.407C33.4356 168.407 33.2598 168.399 33.0814 168.383C32.4582 168.325 31.9975 167.766 32.0587 167.142C32.12 166.517 32.6792 166.088 33.2997 166.12C38.9615 166.735 42.7804 151.779 43.6859 146.522C43.7951 145.904 44.389 145.486 44.9988 145.595C45.6167 145.704 46.0321 146.293 45.9256 146.908C45.5368 149.145 41.9655 168.407 33.6113 168.407Z" fill="white"/>
<path d="M88.7382 210.498C88.6503 210.498 88.5571 210.488 88.4666 210.464C87.8594 210.312 87.4865 209.699 87.6357 209.087L89.7236 200.634C89.8754 200.027 90.4879 199.657 91.1004 199.803C91.7076 199.955 92.0804 200.567 91.9313 201.18L89.8434 209.633C89.7102 210.152 89.2468 210.498 88.7382 210.498Z" fill="#12173F"/>
<path d="M128.414 218.013C128.318 218.013 128.219 218.003 128.121 217.976C127.516 217.814 127.154 217.191 127.316 216.586L129.551 208.208C129.711 207.603 130.326 207.233 130.941 207.403C131.545 207.566 131.908 208.189 131.745 208.794L129.511 217.172C129.375 217.678 128.917 218.013 128.414 218.013Z" fill="#12173F"/>
<path d="M71.6116 102.745C71.0364 102.745 70.541 102.308 70.4851 101.722C70.4212 101.099 70.8766 100.543 71.5024 100.479C87.0019 98.9288 87.5984 74.0925 87.6011 73.8395C87.6117 73.2189 88.1177 72.7209 88.7382 72.7209C88.7462 72.7209 88.7515 72.7209 88.7569 72.7209C89.3854 72.7316 89.8834 73.2482 89.8754 73.8741C89.8567 74.9819 89.2415 100.985 71.7288 102.737C71.6888 102.745 71.6489 102.745 71.6116 102.745Z" fill="#12173F"/>
<path d="M103.758 107.826C103.292 107.826 102.821 107.803 102.342 107.752C101.716 107.688 101.263 107.129 101.329 106.506C101.393 105.88 101.953 105.422 102.576 105.494C105.463 105.795 107.945 105.033 110.184 103.155C117.987 96.62 119.33 79.1552 119.34 78.9768C119.386 78.3509 119.932 77.8742 120.557 77.9248C121.183 77.9701 121.655 78.5134 121.609 79.1392C121.553 79.8955 120.19 97.7385 111.647 104.894C109.322 106.844 106.672 107.826 103.758 107.826Z" fill="#12173F"/>
<path d="M138.411 121.848C137.5 121.848 136.552 121.736 135.564 121.51C134.952 121.371 134.568 120.764 134.707 120.151C134.845 119.539 135.447 119.153 136.065 119.294C138.882 119.925 141.178 119.488 143.087 117.933C149.159 113.001 148.994 98.8437 148.992 98.7026C148.981 98.0741 149.482 97.5574 150.107 97.5468C150.755 97.4748 151.253 98.0368 151.263 98.6626C151.274 99.2911 151.439 114.077 144.52 119.699C142.763 121.129 140.717 121.848 138.411 121.848Z" fill="#12173F"/>
<path d="M116.437 40.0736C116.174 40.0736 115.91 39.9831 115.694 39.7993L101.718 27.738C101.244 27.3278 101.194 26.6114 101.601 26.1347C102.017 25.658 102.733 25.6101 103.204 26.0176L117.18 38.0789C117.654 38.489 117.705 39.2054 117.298 39.6821C117.071 39.9405 116.754 40.0736 116.437 40.0736Z" fill="#F7D372"/>
<path d="M135.817 19.1708C135.38 19.1708 134.962 18.9178 134.776 18.4917L127.372 1.60747C127.122 1.03223 127.38 0.363783 127.956 0.110785C128.531 -0.134223 129.202 0.118775 129.452 0.694013L136.856 17.5783C137.106 18.1535 136.848 18.822 136.272 19.075C136.123 19.1389 135.969 19.1708 135.817 19.1708Z" fill="#F7D372"/>
<path d="M186.896 368.441C186.606 368.441 186.315 368.329 186.092 368.108C185.647 367.663 185.647 366.944 186.092 366.502L193.554 359.037C193.999 358.592 194.718 358.592 195.16 359.037C195.604 359.482 195.604 360.201 195.16 360.643L187.698 368.108C187.477 368.332 187.186 368.441 186.896 368.441Z" fill="#F7D372"/>
<path d="M194.358 353.285C194.057 353.285 193.767 353.165 193.554 352.952L188.233 347.629C187.788 347.184 187.788 346.465 188.233 346.023L193.554 340.702C193.999 340.257 194.718 340.257 195.16 340.702L200.481 346.023C200.925 346.467 200.925 347.187 200.481 347.629L195.16 352.952C194.949 353.165 194.659 353.285 194.358 353.285ZM190.643 346.827L194.358 350.545L198.073 346.827L194.358 343.112L190.643 346.827Z" fill="#F7D372"/>
</svg>
