<svg width="232" height="200" viewBox="0 0 232 200" fill="none" xmlns="http://www.w3.org/2000/svg">
<path d="M73.3994 32.71C73.199 32.71 73.0001 32.6239 72.8623 32.4563L65.2671 23.1589C65.026 22.863 65.0698 22.426 65.3658 22.1833C65.6602 21.9437 66.0971 21.986 66.3414 22.282L73.9366 31.5794C74.1777 31.8754 74.1339 32.3123 73.8379 32.555C73.7095 32.6584 73.5544 32.71 73.3994 32.71Z" fill="#ED2E5D"/>
<path d="M95.1922 27.9759C94.9354 27.9759 94.688 27.8319 94.5689 27.5829L81.7543 0.993547C81.5883 0.650591 81.7324 0.235598 82.0769 0.069601C82.4183 -0.0979623 82.8364 0.0476764 83.0008 0.392199L95.8155 26.9815C95.9815 27.3245 95.8374 27.7395 95.4929 27.9055C95.3958 27.9556 95.2924 27.9759 95.1922 27.9759Z" fill="#ED2E5D"/>
<path d="M147.763 24.2503C147.688 24.2503 147.61 24.2377 147.534 24.2111C147.173 24.0858 146.982 23.6881 147.11 23.3295L150.051 14.9388C150.178 14.577 150.571 14.386 150.933 14.5144C151.294 14.6397 151.485 15.0359 151.357 15.396L148.416 23.7867C148.316 24.0718 148.048 24.2503 147.763 24.2503Z" fill="#ED2E5D"/>
<path d="M158.313 32.2778C156.646 32.2778 155.288 30.92 155.288 29.2522C155.288 27.5844 156.646 26.2251 158.313 26.2251C159.981 26.2251 161.34 27.5828 161.34 29.2522C161.34 30.9216 159.981 32.2778 158.313 32.2778ZM158.313 27.611C157.41 27.611 156.674 28.3471 156.674 29.2522C156.674 30.1558 157.41 30.8918 158.313 30.8918C159.218 30.8918 159.954 30.1558 159.954 29.2522C159.954 28.3471 159.218 27.611 158.313 27.611Z" fill="#ED2E5D"/>
<path d="M30.6755 189.413C30.4985 189.413 30.3216 189.346 30.1853 189.21C29.9144 188.939 29.9144 188.5 30.1853 188.229L34.5373 183.877C34.8082 183.606 35.2467 183.606 35.5176 183.877C35.7885 184.148 35.7885 184.587 35.5176 184.858L31.1656 189.21C31.0294 189.346 30.8524 189.413 30.6755 189.413Z" fill="#ED2E5D"/>
<path d="M70.0544 51.294C89.5278 47.2725 107.553 33.905 139.443 56.88C171.333 79.8549 95.7684 96.8399 95.7684 96.8399L70.0544 51.294Z" fill="#7885DE"/>
<path d="M44.9011 129.728C42.2107 131.867 38.4288 132.45 35.2451 131.125C32.9947 130.188 29.0108 127.044 30.5189 124.212C33.9594 117.753 24.1421 111.999 20.6953 118.47C16.3496 126.627 20.7203 135.874 28.2998 140.311C36.4494 145.081 45.8125 143.443 52.9442 137.771C58.6742 133.215 50.5763 125.213 44.9011 129.728Z" fill="#7885DE"/>
<path d="M225.174 141.647H186.398L172.376 115.634L190.794 65.3584H225.176C233.51 90.7873 233.51 116.216 225.174 141.647Z" fill="#B8CFE8"/>
<path d="M84.2268 185.689C86.2188 191.127 106.475 207.8 120.828 195.684C135.18 183.567 97.0289 175.283 97.0289 175.283L84.2268 185.689Z" fill="#B8CFE8"/>
<path d="M100.689 188.041C101.812 187.819 103.05 187.94 104.319 188.564C110.021 191.371 117.846 199.998 124.057 192.398C117.874 185.739 97.029 175.281 97.029 175.281L92.8775 178.655C94.3167 182.487 97.2389 185.511 100.689 188.041Z" fill="#12173F"/>
<path d="M187.648 144.412C187.654 141.947 186.452 134.125 191.685 130.935C195.408 128.668 199.186 123.124 199.946 120.183C198.416 116.526 187.847 124.209 185.277 120.307C172.329 100.639 177.035 89.1462 148.405 90.103C135.753 160.42 173.756 158.012 187.728 145.399C187.679 145.087 187.646 144.76 187.648 144.412Z" fill="#12173F"/>
<path d="M70.0544 51.294C87.5671 49.1408 166.024 112.229 183.667 132.835C201.31 153.44 185.568 162.857 176.971 166.415C176.971 166.415 176.971 186.352 154.204 184.371C154.204 184.371 153.648 196.581 137.407 198.036C130.982 198.612 125.466 195.435 125.466 195.435L18.9742 127.117L70.0544 51.294Z" fill="#7885DE"/>
<path d="M112.88 77.5185C108.262 79.8941 105.247 85.6711 107.216 90.2188C102.737 93.2334 99.6819 97.9346 95.9078 101.878C90.6632 107.356 80.1881 113.949 73.2929 107.536C67.9372 102.554 59.8738 110.582 65.2483 115.58C78.4921 127.896 96.791 118.57 106.69 106.794C108.882 104.186 111.075 100.706 114.255 99.2312C117.973 97.5086 121.943 99.867 125.538 100.949C132.109 102.925 140.898 103.153 143.903 95.5762C149.73 80.8885 122.845 72.3945 112.88 77.5185Z" fill="#12173F"/>
<path d="M190.794 65.3584C113.416 44.6228 102.289 36.8883 81.5553 67.8124C60.8212 98.7364 45.6481 110.236 64.8662 116.371C84.0844 122.507 118.98 83.3237 118.98 83.3237C118.98 83.3237 148.382 131.961 198.815 120.479C239.355 111.249 190.794 65.3584 190.794 65.3584Z" fill="#B8CFE8"/>
<path d="M40.8357 147.209C42.0792 132.813 47.2235 123.724 57.2679 125.403C67.3107 127.083 69.215 138.332 69.215 138.332C76.746 132.547 90.1683 140.313 90.1683 153.671C90.1683 153.671 108.378 150.675 110.155 172.587C110.594 177.986 109.469 193.524 108.403 196.766C102.344 195.648 89.4871 195.325 84.23 185.686C84.23 185.686 69.6519 188.186 62.3982 172.314C62.395 172.317 38.9252 169.315 40.8357 147.209Z" fill="#B8CFE8"/>
<path d="M18.9758 127.116H6.36467C-2.12156 101.842 -2.12156 76.5678 6.36467 51.2939H70.0544L18.9758 127.116Z" fill="#7885DE"/>
<path d="M154.204 185.063C154.038 185.063 153.871 185.003 153.739 184.883C153.521 184.684 131.726 164.89 112.91 148.988C112.617 148.742 112.58 148.306 112.827 148.013C113.074 147.72 113.513 147.685 113.803 147.93C132.639 163.847 154.452 183.658 154.669 183.857C154.953 184.114 154.973 184.552 154.716 184.836C154.582 184.986 154.394 185.063 154.204 185.063Z" fill="#12173F"/>
<path d="M176.972 167.107C176.73 167.107 176.495 166.98 176.368 166.753C171.142 157.412 131.419 127.027 131.018 126.72C130.714 126.486 130.654 126.053 130.888 125.749C131.121 125.445 131.556 125.385 131.859 125.619C133.505 126.875 172.213 156.488 177.577 166.077C177.763 166.41 177.644 166.833 177.311 167.019C177.204 167.079 177.087 167.107 176.972 167.107Z" fill="#12173F"/>
<path d="M127.198 121C127.015 121 126.835 120.928 126.697 120.786L123.556 117.5C123.293 117.225 123.302 116.785 123.578 116.52C123.853 116.255 124.29 116.266 124.558 116.542L127.699 119.827C127.962 120.103 127.953 120.543 127.677 120.808C127.544 120.938 127.37 121 127.198 121Z" fill="#12173F"/>
<path d="M108.375 143.805C108.171 143.805 107.971 143.716 107.833 143.543L103.6 138.241C103.36 137.942 103.411 137.506 103.71 137.268C104.009 137.032 104.444 137.079 104.682 137.378L108.915 142.68C109.155 142.979 109.105 143.415 108.805 143.653C108.68 143.755 108.527 143.805 108.375 143.805Z" fill="#12173F"/>
<path d="M71.9775 111.146C71.8413 111.146 71.7034 111.106 71.5844 111.022C71.2697 110.804 71.1914 110.372 71.409 110.059C75.4133 104.274 76.9292 98.8712 75.5715 95.2318C74.7399 93.0002 72.8247 91.4859 69.8853 90.7326C69.5142 90.6386 69.2918 90.2597 69.3857 89.8901C69.4797 89.5205 69.8524 89.2981 70.2283 89.3905C73.6343 90.2628 75.869 92.0653 76.8697 94.7479C78.3887 98.8179 76.8149 104.687 72.5475 110.848C72.4128 111.041 72.1967 111.146 71.9775 111.146Z" fill="white"/>
<path d="M108.674 54.2004C108.608 54.2004 108.539 54.191 108.473 54.1707L101.138 51.9564C100.772 51.8452 100.565 51.4599 100.676 51.0935C100.787 50.7286 101.179 50.5203 101.539 50.6315L108.874 52.8458C109.241 52.957 109.448 53.3423 109.336 53.7087C109.247 54.0078 108.971 54.2004 108.674 54.2004Z" fill="white"/>
<path d="M62.3951 173.009C62.0114 173.009 61.7029 172.699 61.7029 172.317C61.7029 171.244 61.7827 145.942 68.6889 137.882C68.9379 137.591 69.3795 137.559 69.6661 137.807C69.9574 138.056 69.9902 138.493 69.7413 138.784C63.164 146.459 63.0888 172.06 63.0888 172.317C63.0872 172.699 62.7772 173.009 62.3951 173.009Z" fill="white"/>
<path d="M84.2268 186.382C83.8432 186.382 83.5347 186.072 83.5347 185.689C83.5347 176.226 85.4139 156.298 89.7564 153.115C90.0665 152.888 90.4987 152.953 90.7258 153.264C90.9513 153.572 90.8855 154.006 90.577 154.233C87.1756 156.724 84.9206 174.817 84.9206 185.689C84.919 186.072 84.6089 186.382 84.2268 186.382Z" fill="white"/>
<path d="M52.2818 149.777C50.3931 149.777 48.2352 149.151 45.8266 147.9C45.4868 147.724 45.3537 147.306 45.5322 146.966C45.7076 146.625 46.1289 146.492 46.4656 146.672C50.1535 148.587 53.1024 148.904 55.2306 147.613C59.1738 145.219 59.7626 137.686 59.7626 133.409C59.7626 133.026 60.0727 132.717 60.4548 132.717C60.8385 132.717 61.147 133.027 61.147 133.409C61.147 138.989 60.2465 146.188 55.9494 148.797C54.872 149.45 53.6473 149.777 52.2818 149.777Z" fill="white"/>
<path d="M71.965 160.404C71.0113 160.404 70.0309 160.274 69.0365 160.013C68.6669 159.917 68.4446 159.538 68.5432 159.167C68.6387 158.798 69.0162 158.572 69.3889 158.674C72.3204 159.44 75.0876 158.907 77.3896 157.127C80.4089 154.79 82.3554 150.537 82.346 146.291C82.3445 145.908 82.6546 145.599 83.0382 145.598H83.0398C83.4219 145.598 83.7304 145.906 83.732 146.288C83.7429 150.949 81.5865 155.633 78.2368 158.221C76.3686 159.67 74.2373 160.404 71.965 160.404Z" fill="white"/>
<path d="M94.6768 177.28C93.3191 177.28 91.7077 176.907 89.8363 175.892C89.4996 175.709 89.3743 175.289 89.5576 174.953C89.7408 174.614 90.1589 174.492 90.4972 174.674C93.3113 176.198 95.737 176.301 97.7149 174.981C101.018 172.77 102.361 166.988 102.028 163.835C101.987 163.455 102.263 163.114 102.643 163.074C103.01 163.031 103.364 163.308 103.404 163.69C103.785 167.273 102.285 173.589 98.4854 176.132C97.5708 176.743 96.3071 177.28 94.6768 177.28Z" fill="white"/>
<path d="M110.248 196.147C109.924 196.147 109.634 195.917 109.568 195.587L108.677 191.022C108.603 190.646 108.849 190.282 109.225 190.209C109.593 190.141 109.964 190.381 110.038 190.757L110.929 195.322C111.003 195.698 110.757 196.061 110.381 196.135C110.337 196.144 110.293 196.147 110.248 196.147Z" fill="white"/>
<path d="M102.77 55.5315C102.7 55.5315 102.628 55.5206 102.555 55.4971L98.4416 54.1675C98.0783 54.0501 97.8794 53.6601 97.9968 53.2953C98.1143 52.9319 98.5026 52.7315 98.8691 52.8505L102.983 54.1801C103.346 54.2975 103.545 54.6874 103.428 55.0523C103.334 55.3436 103.061 55.5315 102.77 55.5315Z" fill="white"/>
</svg>
