<svg width="120" height="200" viewBox="0 0 120 200" fill="none" xmlns="http://www.w3.org/2000/svg">
<path d="M34.5444 88.5264C22.3248 106.426 11.4396 110.187 19.4203 133.07C27.401 155.953 38.1294 165.155 38.1294 165.155C38.1294 165.155 70.4091 156.765 61.9288 138.36C53.4498 119.955 37.6502 116.105 37.6502 116.105C37.6502 116.105 45.0039 107.804 46.755 97.3138C48.227 88.5035 41.856 77.8158 34.5444 88.5264Z" fill="#F7989C"/>
<path d="M50.1553 138.176C66.3078 124.738 82.8236 115.433 84.7417 109.955C86.5489 104.796 73.7775 98.624 71.6007 91.8681C68.9562 83.6631 73.0638 75.1892 83.7132 85.5174C93.5202 95.03 109.007 101.639 102.875 111.862C96.742 122.084 86.9287 136.99 86.9287 136.99L50.1553 138.176Z" fill="#F7989C"/>
<path d="M111.115 118.907C111.992 108.964 102.1 100.71 94.1714 109.072L72.5374 121.353C63.8213 118.521 51.9726 124.976 51.1799 135.479C50.7606 141.025 59.404 140.999 59.8221 135.479C59.9839 133.333 62.0192 131.206 64.4254 130.024L56.5161 147.712L77.0465 174.762C77.0465 174.762 116.496 150.553 118.972 134.174C120.805 122.04 111.115 118.907 111.115 118.907Z" fill="#F7989C"/>
<path d="M82.1685 146.396V193.753C66.3894 202.082 50.6001 202.082 34.812 193.753V146.396H82.1685Z" fill="#F7989C"/>
<path d="M83.3843 136.366C81.5364 136.366 79.6833 135.93 78.2151 135.053C75.981 133.72 74.862 131.543 75.0659 128.928C75.6228 121.778 93.2296 109.867 102.931 105.208C103.161 105.1 103.439 105.194 103.55 105.426C103.661 105.656 103.564 105.934 103.332 106.045C94.0682 110.494 76.5124 122.3 75.9899 129.001C75.7656 131.88 77.3345 133.447 78.6905 134.257C81.4166 135.884 85.6032 135.842 88.2197 134.157C88.435 134.018 88.7218 134.081 88.862 134.297C89.0009 134.513 88.9385 134.8 88.7218 134.939C87.246 135.888 85.319 136.366 83.3843 136.366Z" fill="#12173F"/>
<path d="M94.8137 146.825C93.6144 146.825 92.4916 146.651 91.4708 146.289C89.0888 145.446 87.576 143.614 87.2102 141.131C86.1537 133.952 98.2943 126.37 109.006 119.679L110.869 118.513C111.086 118.378 111.373 118.443 111.509 118.66C111.646 118.878 111.579 119.163 111.363 119.3L109.498 120.466C99.5458 126.683 87.1592 134.417 88.1278 140.995C88.4452 143.152 89.7082 144.681 91.7792 145.413C95.7262 146.811 103.053 145.141 110.527 138.26C110.716 138.089 111.01 138.099 111.183 138.287C111.356 138.475 111.345 138.768 111.156 138.943C105.69 143.974 99.6427 146.825 94.8137 146.825Z" fill="#12173F"/>
<path d="M86.8534 88.8004C86.7808 88.8004 86.7082 88.7826 86.6393 88.7481C86.5884 88.7214 81.5529 86.0769 76.8832 81.4149C76.7023 81.2339 76.7023 80.9395 76.8832 80.7585C77.0642 80.5776 77.3586 80.5776 77.5396 80.7585C82.1035 85.316 87.0179 87.8994 87.0676 87.9248C87.2957 88.0421 87.3836 88.3238 87.2651 88.5506C87.1822 88.7099 87.0204 88.8004 86.8534 88.8004Z" fill="#12173F"/>
<path d="M32.6174 119.371C32.4555 119.371 32.2962 119.284 32.2121 119.133C32.0872 118.908 32.1675 118.625 32.3918 118.502L37.4259 115.698C37.649 115.574 37.9332 115.652 38.0568 115.878C38.1817 116.102 38.1014 116.385 37.8771 116.509L32.8429 119.312C32.7716 119.352 32.6938 119.371 32.6174 119.371Z" fill="white"/>
<path d="M64.8894 146.862C64.6663 146.862 64.4701 146.701 64.4331 146.475C63.6633 141.813 60.3217 132.912 54.2794 127.498C54.0895 127.328 54.0729 127.034 54.2437 126.843C54.4145 126.652 54.7089 126.637 54.8988 126.808C61.1195 132.381 64.5554 141.531 65.3482 146.322C65.3902 146.574 65.2182 146.814 64.9671 146.856C64.9403 146.861 64.9148 146.862 64.8894 146.862Z" fill="#12173F"/>
<path d="M66.8316 154.621C66.7399 154.621 66.6481 154.595 66.5665 154.539C66.3563 154.393 66.304 154.104 66.4493 153.892C67.4867 152.397 69.6699 151.523 72.4393 151.491C75.3999 151.484 78.2585 152.442 79.3074 153.883C79.4578 154.091 79.4119 154.38 79.2054 154.531C78.999 154.681 78.7084 154.635 78.558 154.429C77.6888 153.235 75.1208 152.394 72.4508 152.419C70.0216 152.446 68.064 153.195 67.214 154.421C67.1222 154.553 66.9782 154.621 66.8316 154.621Z" fill="#12173F"/>
<path d="M84.3656 133.092C84.2292 133.092 84.0916 133.031 83.9998 132.915C83.8418 132.713 83.8762 132.421 84.0789 132.263C85.5878 131.079 89.0761 127.994 88.8696 124.929C88.7727 123.478 87.8194 122.213 86.0403 121.168C85.8185 121.038 85.7446 120.754 85.8746 120.532C86.0059 120.309 86.2913 120.239 86.5106 120.366C88.5714 121.577 89.6776 123.091 89.7974 124.865C90.0345 128.372 86.2786 131.718 84.6536 132.994C84.5657 133.06 84.465 133.092 84.3656 133.092Z" fill="#12173F"/>
<path d="M96.0207 143.219C95.8461 143.219 95.6804 143.121 95.6014 142.954C95.4918 142.722 95.5912 142.445 95.8231 142.336C98.4562 141.093 101.367 138.566 101.537 135.953C101.632 134.48 100.816 133.177 99.1125 132.083C98.8971 131.944 98.8347 131.657 98.9723 131.442C99.1113 131.226 99.398 131.164 99.6134 131.301C102.116 132.911 102.545 134.753 102.462 136.014C102.266 139.018 99.1852 141.775 96.2195 143.175C96.1545 143.203 96.0882 143.219 96.0207 143.219Z" fill="#12173F"/>
<path d="M110.84 138.601C107.133 141.62 98.2561 145.889 96.9867 146.158C93.1416 146.973 89.0047 145.815 88.3509 141.575C87.9813 139.182 88.458 135.908 91.9895 132.41C89.7019 133.5 85.3215 135.996 82.821 135.91C79.9178 135.808 77.7092 134.931 76.2435 133.078C76.1403 131.971 76.2843 133.989 76.2678 134.207C75.9351 138.574 79.0601 141.196 81.5734 144.266C83.875 147.079 84.7761 149.488 84.3644 153.058C84.0917 155.417 81.2165 160.708 80.6468 161.71C78.5389 165.434 75.3846 168.693 75.2112 173.203C75.0035 178.673 78.0546 182.561 82.1672 185.206L82.2972 171.555C83.6316 170.574 85.6631 169.07 85.9715 168.856C94.3639 163.016 106.652 153.674 113.661 144.68C113.588 144.473 113.437 144.276 113.445 144.057C113.508 142.442 116.481 133.566 110.84 138.601Z" fill="#12173F"/>
<path d="M35.1345 5.28109C35.0071 5.28109 34.8821 5.22884 34.7891 5.12688L30.8726 0.774586C30.7019 0.584691 30.7172 0.291564 30.9083 0.119512C31.0957 -0.0525408 31.3901 -0.0372474 31.5634 0.155197L35.4799 4.50749C35.6507 4.69738 35.6354 4.99051 35.4442 5.16256C35.3562 5.24158 35.2441 5.28109 35.1345 5.28109Z" fill="#ED2E5D"/>
<path d="M12.0692 49.6693H0.463906C0.207739 49.6693 0 49.4615 0 49.2054C0 48.9492 0.207739 48.7415 0.463906 48.7415H12.0692C12.3253 48.7415 12.5331 48.9492 12.5331 49.2054C12.5331 49.4615 12.3253 49.6693 12.0692 49.6693Z" fill="#ED2E5D"/>
<path d="M43.5536 5.28104C43.3573 5.28104 43.1738 5.15487 43.1113 4.95732L41.7298 0.605034C41.6521 0.360337 41.7884 0.100346 42.0319 0.0226034C42.2791 -0.0538644 42.5378 0.08123 42.6143 0.324652L43.9971 4.67694C44.0748 4.92164 43.9385 5.18163 43.695 5.25937C43.6466 5.27339 43.5995 5.28104 43.5536 5.28104Z" fill="#ED2E5D"/>
<path d="M89.3425 71.4284C89.2864 71.4284 89.2278 71.4182 89.173 71.3965L85.0144 69.7639C84.7761 69.6696 84.6588 69.4007 84.7519 69.1624C84.8462 68.924 85.1151 68.8068 85.3534 68.8998L89.512 70.5324C89.7503 70.6267 89.8676 70.8956 89.7746 71.134C89.7019 71.3175 89.5273 71.4284 89.3425 71.4284Z" fill="#ED2E5D"/>
<path d="M88.7358 14.6727C87.3008 14.6727 86.1334 13.5053 86.1334 12.0702C86.1334 10.6352 87.3008 9.46777 88.7358 9.46777C90.1709 9.46777 91.3383 10.6352 91.3383 12.0702C91.3395 13.5053 90.1721 14.6727 88.7358 14.6727ZM88.7358 10.3956C87.8118 10.3956 87.0612 11.1475 87.0612 12.069C87.0612 12.9929 87.8131 13.7436 88.7358 13.7436C89.6585 13.7436 90.4105 12.9917 90.4105 12.069C90.4117 11.1462 89.6598 10.3956 88.7358 10.3956Z" fill="#ED2E5D"/>
<path d="M25.3313 82.3059C25.2522 82.3059 25.1732 82.2855 25.0993 82.2435L21.5257 80.1801C21.4187 80.119 21.3422 80.0183 21.3091 79.8985C21.2772 79.7799 21.295 79.6538 21.3562 79.5467L23.4196 75.9744C23.547 75.7527 23.8325 75.6775 24.053 75.8049L27.6253 77.8683C27.8471 77.9957 27.9235 78.2799 27.7948 78.5017L25.7314 82.074C25.6486 82.2218 25.4918 82.3059 25.3313 82.3059ZM22.3923 79.6092L25.1618 81.2073L26.7599 78.4379L23.9905 76.8398L22.3923 79.6092Z" fill="#ED2E5D"/>
<path d="M58.7961 70.4674C75.8086 70.4674 89.6 56.6761 89.6 39.6636C89.6 22.6512 75.8086 8.85986 58.7961 8.85986C41.7837 8.85986 27.9923 22.6512 27.9923 39.6636C27.9923 56.6761 41.7837 70.4674 58.7961 70.4674Z" fill="#FFE86D"/>
<path d="M72.2532 80.2847H45.3403L43.5803 49.8518H74.0132L72.2532 80.2847Z" fill="#FFE86D"/>
<path d="M46.4108 83.0361L46.8467 89.0095H70.7454L71.1826 83.0361H46.4108Z" fill="#7885DE"/>
<path d="M46.4108 91.76L46.8467 97.7334H70.7454L71.1826 91.76H46.4108Z" fill="#7885DE"/>
<path d="M67.2891 79.6461C67.033 79.6461 66.8252 79.4384 66.8252 79.1822V46.4298H50.7683V79.1822C50.7683 79.4384 50.5605 79.6461 50.3044 79.6461C50.0482 79.6461 49.8405 79.4384 49.8405 79.1822V45.9659C49.8405 45.7097 50.0482 45.502 50.3044 45.502H67.2891C67.5453 45.502 67.753 45.7097 67.753 45.9659V79.1822C67.753 79.4384 67.5453 79.6461 67.2891 79.6461Z" fill="#ED2E5D"/>
<path d="M50.3044 46.4298H46.2375C43.7396 46.4298 41.7081 44.3983 41.7081 41.9004C41.7081 39.4024 43.7396 37.3696 46.2375 37.3696C48.7355 37.3696 50.7682 39.4024 50.7682 41.9004V45.9659C50.7682 46.2221 50.5605 46.4298 50.3044 46.4298ZM46.2375 38.2974C44.2519 38.2974 42.6359 39.9135 42.6359 41.9004C42.6359 43.886 44.2519 45.502 46.2375 45.502H49.8404V41.9004C49.8404 39.9135 48.2244 38.2974 46.2375 38.2974Z" fill="#ED2E5D"/>
<path d="M71.1826 46.4298H67.1157C66.8595 46.4298 66.6518 46.2221 66.6518 45.9659V41.9004C66.6518 39.4024 68.6846 37.3696 71.1826 37.3696C73.6805 37.3696 75.712 39.4024 75.712 41.9004C75.712 44.3983 73.6805 46.4298 71.1826 46.4298ZM67.5796 45.502H71.1826C73.1682 45.502 74.7842 43.886 74.7842 41.9004C74.7842 39.9135 73.1682 38.2974 71.1826 38.2974C69.1957 38.2974 67.5796 39.9135 67.5796 41.9004V45.502Z" fill="#ED2E5D"/>
</svg>
