<svg width="204" height="200" viewBox="0 0 204 200" fill="none" xmlns="http://www.w3.org/2000/svg">
<path d="M57.7448 185.237H4.4602C-2.51685 165.232 -0.359587 147.143 4.4602 129.613H57.7448V185.237Z" fill="#FFE86D"/>
<path d="M57.7448 185.237H4.4602C-2.51685 165.232 -0.359587 147.143 4.4602 129.613H57.7448V185.237Z" fill="#FFE86D"/>
<path d="M91.708 116.499C107.239 116.499 123.419 117.346 131.858 118.077C144.501 119.172 145.72 138.819 134.631 143.512C134.631 143.512 143.18 156.566 133.476 166.245C133.476 166.245 137.173 183.761 121.607 188.371C112.192 191.158 69.3973 188.985 52.4211 188.985C35.4449 188.985 26.2289 153.416 26.2289 153.416L91.708 116.499Z" fill="#FFE86D"/>
<path d="M45.5108 164.87C42.4315 166.011 39.3046 167.301 36.435 168.923C33.8501 170.384 33.4416 171.219 32.5018 173.9C30.7041 179.029 27.2149 181.249 23.1169 184.378C22.7588 184.651 22.4101 184.94 22.0669 185.236H57.7448V161.055C53.6209 162.185 49.5175 163.386 45.5108 164.87Z" fill="#12173F"/>
<path d="M105.727 189.637C107.352 188.514 109.417 188.153 111.411 188.052C111.476 187.89 111.198 187.782 110.531 187.761C96.5796 187.318 68.7572 186.701 57.3444 189.03C70.0346 189.225 90.293 189.987 105.049 189.743C105.285 189.708 105.504 189.673 105.727 189.637Z" fill="#12173F"/>
<path d="M31.2925 200H75.7723L108.688 94.7996H64.2084L31.2925 200Z" fill="#B8CFE8"/>
<path d="M98.7477 119.099C91.6998 118.656 84.7119 118.08 77.6531 117.978C70.8749 117.88 64.0708 117.677 57.3512 116.713L36.0973 184.417L36.1586 184.443C46.1768 186.482 55.7509 181.61 64.6265 177.545C71.3475 174.467 76.8265 176.179 82.541 178.362L101.041 119.232C100.278 119.189 99.5117 119.146 98.7477 119.099Z" fill="#12173F"/>
<path d="M45.1512 54.5049H25.5589V97.3464H45.1512V54.5049Z" fill="#7885DE"/>
<path d="M102.379 29.0577V104.242H182.459V7.14868L102.379 29.0577Z" fill="#B8CFE8"/>
<path d="M106.291 27.9873L36.9008 46.9736V104.242H106.291V27.9873Z" fill="#7885DE"/>
<path d="M182.459 7.14865L189.607 0V111.219L182.459 104.242V7.14865Z" fill="#7885DE"/>
<path d="M36.9008 96.2542C36.6039 96.2542 36.3643 96.0145 36.3643 95.7176V54.5063C36.3643 54.2094 36.6039 53.9697 36.9008 53.9697C37.1977 53.9697 37.4374 54.2094 37.4374 54.5063V95.719C37.4374 96.0145 37.1977 96.2542 36.9008 96.2542Z" fill="white"/>
<path d="M111.181 64.2915H60.9725V75.9263H111.181V64.2915Z" fill="#ED2E5D"/>
<path d="M107.558 137.42L103.539 151.136L93.2143 186.453C93.2143 186.453 67.8964 191.412 67.9087 177.58C67.9209 167.64 77.5592 166.106 77.5592 166.106C73.8425 158.233 77.4543 151.624 79.9398 148.373C81.0075 146.991 81.8682 146.213 81.8682 146.213C81.8682 146.213 79.696 140.952 81.5427 130.627C81.6013 130.302 81.6708 129.965 81.7402 129.617L85.6421 126.202L107.558 137.42Z" fill="#FFE86D"/>
<path d="M116.228 139.689L107.558 137.419L85.6434 126.201L81.7416 129.615C81.6721 129.964 77.6191 133.015 77.5605 133.34C75.7138 143.665 80.6616 146.416 80.6616 146.416C80.6616 146.416 81.0415 146.965 80.0024 148.295C83.2968 148.899 98.9043 146.028 102.342 145.215C107.95 143.062 111.069 143.105 116.228 139.689Z" fill="#12173F"/>
<path d="M20.9148 132.746C61.3729 103.862 80.8904 101.375 102.742 113.802C124.594 126.231 127.154 132.63 117.34 139.458C107.527 146.285 83.6333 130.498 83.6333 130.498C83.6333 130.498 61.8727 194.924 27.7406 177.43C-6.39147 159.937 20.9148 132.746 20.9148 132.746Z" fill="#FFE86D"/>
<path d="M109.226 142.691C107.986 142.691 106.761 142.567 105.595 142.318C105.305 142.255 105.121 141.97 105.184 141.682C105.245 141.392 105.526 141.211 105.82 141.269C112.099 142.617 120.221 140.103 122.299 134.217C124.55 127.847 116.153 121.276 107.543 117.25C107.275 117.125 107.159 116.805 107.284 116.538C107.409 116.271 107.727 116.156 107.996 116.279C119.525 121.671 125.393 128.681 123.31 134.575C121.437 139.88 115.149 142.691 109.226 142.691Z" fill="#12173F"/>
<path d="M114.897 133.875C114.847 133.875 114.795 133.868 114.743 133.852C114.351 133.735 105.12 130.905 103.126 125.213C102.339 122.964 102.79 120.594 104.469 118.17C104.638 117.926 104.97 117.863 105.215 118.034C105.459 118.202 105.519 118.536 105.352 118.778C103.879 120.906 103.472 122.951 104.139 124.858C105.955 130.041 114.962 132.798 115.052 132.825C115.336 132.91 115.496 133.208 115.412 133.493C115.341 133.725 115.127 133.875 114.897 133.875Z" fill="#12173F"/>
<path d="M77.9514 114.224C77.8329 114.224 77.7131 114.185 77.6123 114.104C77.3835 113.916 77.3494 113.579 77.536 113.35L81.5672 108.413C81.7538 108.184 82.0902 108.149 82.3218 108.337C82.5506 108.525 82.5846 108.862 82.398 109.091L78.3668 114.028C78.2605 114.158 78.1066 114.224 77.9514 114.224Z" fill="white"/>
<path d="M95.5867 168.465C87.3594 168.465 80.2108 167.996 77.3249 166.585C77.0593 166.456 76.949 166.135 77.0784 165.869C77.2092 165.602 77.5306 165.496 77.7948 165.623C85.9363 169.603 131.707 165.61 132.169 165.571C132.459 165.557 132.725 165.763 132.75 166.057C132.776 166.353 132.558 166.611 132.264 166.639C131.019 166.749 111.333 168.465 95.5867 168.465Z" fill="#12173F"/>
<path d="M109.706 145.747C106.708 145.747 103.584 145.671 100.416 145.484C100.12 145.468 99.8958 145.213 99.9121 144.917C99.9285 144.622 100.19 144.393 100.479 144.414C118.095 145.449 134.389 143.071 134.551 143.046C134.845 143.001 135.116 143.206 135.16 143.497C135.203 143.788 135.002 144.062 134.709 144.106C134.575 144.128 123.488 145.747 109.706 145.747Z" fill="#12173F"/>
<path d="M98.1144 162.635C98.0599 162.635 98.0041 162.626 97.9496 162.609C97.6677 162.517 97.5138 162.215 97.605 161.933C97.6159 161.896 97.9046 160.883 97.0194 159.681C95.7011 157.89 91.885 155.731 81.1913 155.619C80.8958 155.617 80.6575 155.373 80.6616 155.079C80.6643 154.785 80.904 154.548 81.1981 154.548C81.1995 154.548 81.2022 154.548 81.2036 154.548C92.3998 154.665 96.4719 157.082 97.9155 159.091C99.099 160.737 98.6441 162.203 98.6251 162.264C98.5515 162.49 98.3404 162.635 98.1144 162.635Z" fill="#12173F"/>
<path d="M85.1858 180.488C84.9461 180.488 84.7282 180.327 84.6669 180.083C83.783 176.589 83.2437 174.479 70.7346 174.876C70.4023 174.871 70.1912 174.652 70.1817 174.357C70.1722 174.061 70.4037 173.813 70.6992 173.804C83.4548 173.395 84.6655 175.706 85.706 179.819C85.7782 180.107 85.6039 180.398 85.3179 180.47C85.2743 180.483 85.2294 180.488 85.1858 180.488Z" fill="#12173F"/>
<path d="M110.982 188.888C110.964 188.888 110.948 188.887 110.93 188.885C110.81 188.874 98.7204 187.734 85.4419 188.662C85.1477 188.674 84.8903 188.46 84.8699 188.165C84.8494 187.869 85.0728 187.613 85.367 187.593C98.7341 186.661 110.911 187.807 111.032 187.819C111.326 187.847 111.543 188.11 111.514 188.404C111.487 188.681 111.254 188.888 110.982 188.888Z" fill="#12173F"/>
<path d="M196.587 22.9236C196.449 22.9236 196.313 22.8718 196.208 22.767C195.999 22.5572 195.999 22.2181 196.208 22.0097L202.97 15.2479C203.18 15.0381 203.519 15.0381 203.727 15.2479C203.936 15.4576 203.937 15.7967 203.727 16.0051L196.966 22.767C196.861 22.8718 196.723 22.9236 196.587 22.9236Z" fill="#ED2E5D"/>
<path d="M196.587 35.2856C196.449 35.2856 196.313 35.2339 196.208 35.129C195.999 34.9193 195.999 34.5802 196.208 34.3718L202.97 27.6099C203.18 27.4002 203.519 27.4002 203.727 27.6099C203.936 27.8197 203.937 28.1588 203.727 28.3672L196.966 35.129C196.861 35.2339 196.723 35.2856 196.587 35.2856Z" fill="#ED2E5D"/>
<path d="M17.3561 110.038C17.2362 110.038 17.115 109.997 17.0143 109.914L14.1788 107.565C13.95 107.377 13.9186 107.037 14.108 106.81L16.4572 103.975C16.6465 103.747 16.9843 103.716 17.2117 103.905L20.0472 106.254C20.1562 106.344 20.2256 106.475 20.2393 106.617C20.2529 106.758 20.2093 106.9 20.118 107.009L17.7688 109.844C17.6639 109.971 17.5114 110.038 17.3561 110.038ZM15.2765 107.081L17.2866 108.747L18.9523 106.736L16.9421 105.071L15.2765 107.081Z" fill="#ED2E5D"/>
</svg>
