<svg width="198" height="200" viewBox="0 0 198 200" fill="none" xmlns="http://www.w3.org/2000/svg">
<path d="M170.753 10.6477H14.7152V152.803H170.753V10.6477Z" fill="white"/>
<path d="M30.8628 11.449C30.5174 11.449 30.2376 11.1692 30.2376 10.8237V0.625254C30.2376 0.279788 30.5174 0 30.8628 0C31.2083 0 31.4881 0.279788 31.4881 0.625254V10.8237C31.4894 11.1692 31.2083 11.449 30.8628 11.449Z" fill="#12173F"/>
<path d="M42.2869 11.449C41.9414 11.449 41.6616 11.1692 41.6616 10.8237V0.625254C41.6616 0.279788 41.9414 0 42.2869 0C42.6323 0 42.9121 0.279788 42.9121 0.625254V10.8237C42.9134 11.1692 42.6337 11.449 42.2869 11.449Z" fill="#12173F"/>
<path d="M149.915 11.449C149.569 11.449 149.29 11.1692 149.29 10.8237V0.625254C149.29 0.279788 149.569 0 149.915 0C150.26 0 150.54 0.279788 150.54 0.625254V10.8237C150.54 11.1692 150.26 11.449 149.915 11.449Z" fill="#12173F"/>
<path d="M138.089 11.449C137.743 11.449 137.464 11.1692 137.464 10.8237V0.625254C137.464 0.279788 137.743 0 138.089 0C138.434 0 138.714 0.279788 138.714 0.625254V10.8237C138.715 11.1692 138.436 11.449 138.089 11.449Z" fill="#12173F"/>
<path d="M170.753 10.8225H14.7152V31.5636H170.753V10.8225Z" fill="#7885DE"/>
<path d="M170.753 153.429H14.7152C14.3698 153.429 14.09 153.149 14.09 152.804V10.8225C14.09 10.4771 14.3698 10.1973 14.7152 10.1973H170.752C171.097 10.1973 171.377 10.4771 171.377 10.8225V152.803C171.378 153.149 171.099 153.429 170.753 153.429ZM15.3418 152.177H170.128V11.4491H15.3418V152.177Z" fill="#12173F"/>
<path d="M64.6253 85.9385H33.5622C33.2168 85.9385 32.937 85.6587 32.937 85.3132V54.2488C32.937 53.9033 33.2168 53.6235 33.5622 53.6235H64.6253C64.9708 53.6235 65.2506 53.9033 65.2506 54.2488V85.3119C65.2519 85.6574 64.9721 85.9385 64.6253 85.9385ZM34.1875 84.6866H64V54.8754H34.1875V84.6866Z" fill="#12173F"/>
<path d="M108.266 54.2488H77.2026V85.3119H108.266V54.2488Z" fill="#FFE86D"/>
<path d="M159.655 54.2488H131.659V61.2343H159.655V54.2488Z" fill="#ED2E5D"/>
<path d="M64.6253 131.012H33.5622C33.2168 131.012 32.937 130.732 32.937 130.387V99.3235C32.937 98.978 33.2168 98.6982 33.5622 98.6982H64.6253C64.9708 98.6982 65.2506 98.978 65.2506 99.3235V130.387C65.2519 130.732 64.9721 131.012 64.6253 131.012ZM34.1875 129.76H64V99.9488H34.1875V129.76Z" fill="#12173F"/>
<path d="M108.266 131.012H77.2026C76.8572 131.012 76.5774 130.732 76.5774 130.387V99.3235C76.5774 98.978 76.8572 98.6982 77.2026 98.6982H108.266C108.611 98.6982 108.891 98.978 108.891 99.3235V130.387C108.892 130.732 108.612 131.012 108.266 131.012ZM77.8279 129.76H107.64V99.9488H77.8279V129.76Z" fill="#12173F"/>
<path d="M34.8206 84.68C34.6604 84.68 34.5001 84.6182 34.3779 84.4961C34.1336 84.2517 34.1336 83.855 34.3779 83.6107L64.1827 53.806C64.427 53.5617 64.8237 53.5617 65.068 53.806C65.3123 54.0504 65.3123 54.4471 65.068 54.6914L35.2633 84.4961C35.1411 84.6182 34.9809 84.68 34.8206 84.68Z" fill="#12173F"/>
<path d="M33.1195 23.878C33.0065 23.765 32.9356 23.6087 32.9356 23.4353C32.9356 23.0898 33.2154 22.8101 33.5608 22.8101H69.9675C70.313 22.8101 70.5928 23.0898 70.5928 23.4353C70.5928 23.7808 70.313 24.0606 69.9675 24.0606H33.5622C33.3888 24.0606 33.2325 23.991 33.1195 23.878Z" fill="white"/>
<path d="M34.8206 130.383C34.6604 130.383 34.5001 130.321 34.3779 130.199C34.1336 129.955 34.1336 129.558 34.3779 129.314L64.1827 99.5089C64.427 99.2646 64.8237 99.2646 65.068 99.5089C65.3123 99.7532 65.3123 100.15 65.068 100.394L35.2633 130.199C35.1411 130.322 34.9809 130.383 34.8206 130.383Z" fill="#12173F"/>
<path d="M96.7733 102.337C95.7777 103.414 94.983 104.737 93.7508 105.492C87.4865 109.334 51.4634 134.93 70.3393 158.34C91.2052 184.219 123.13 187.245 123.13 187.245L119.34 151.972C119.34 151.972 105.135 136.143 94.7163 136.03C94.7163 136.03 107.694 119.942 111.032 113.316C118.027 99.4299 106.931 91.3423 96.7733 102.337Z" fill="#F7989C"/>
<path d="M107.445 128.312C106.617 123.865 99.0406 121.245 95.8526 126.242C93.5552 129.844 90.8019 132.888 87.3683 135.688C85.0814 137.555 84.7911 141.732 87.3683 143.547C90.1938 145.537 92.8931 147.731 95.096 150.28C98.657 154.404 106.693 153.472 106.759 147.476C106.821 141.843 107.214 136.24 107.939 130.644C108.046 129.819 107.845 129.028 107.445 128.312Z" fill="#12173F"/>
<path d="M148.522 194.201C126.321 202.605 108.314 201.231 92.7342 194.201V151.517H148.522V194.201Z" fill="#F7989C"/>
<path d="M148.13 160.348C149.326 134.013 147.326 106.909 141.62 98.7403C136.803 91.8428 128.765 91.6352 128.765 91.6352C125.839 82.2617 117.002 83.4846 112.769 83.1496C112.285 76.2101 111.864 54.0674 100.032 59.5489C92.1208 63.2137 92.0131 99.9514 92.7907 155.108C87.2383 161.052 85.2114 144.84 90.2187 152.004C91.284 153.528 92.7145 154.724 94.3275 155.303L101.128 172.579L148.13 160.348Z" fill="#F7989C"/>
<path d="M91.971 150.899C91.7096 150.899 91.4653 150.734 91.3773 150.471C91.351 150.395 91.3418 150.316 91.3471 150.241C91.3642 149.511 92.1076 114.33 92.0997 106.572C92.0997 106.226 92.3795 105.946 92.725 105.945C93.0705 105.945 93.3503 106.225 93.3503 106.57C93.3542 110.68 93.1493 122.341 92.9772 131.401C92.8813 136.37 92.788 141.091 92.7158 144.57C92.5897 150.727 92.5897 150.727 92.1681 150.868C92.1024 150.889 92.0367 150.899 91.971 150.899ZM91.971 150.273H91.9828H91.971Z" fill="#12173F"/>
<path d="M113.016 122.126C112.67 122.126 112.39 121.846 112.39 121.5V85.3118C112.39 84.9663 112.67 84.6865 113.016 84.6865C113.361 84.6865 113.641 84.9663 113.641 85.3118V121.499C113.641 121.845 113.361 122.126 113.016 122.126Z" fill="#12173F"/>
<path d="M128.766 122.126C128.763 122.126 128.76 122.126 128.757 122.126C128.412 122.12 128.136 121.835 128.141 121.49C128.144 121.315 128.405 103.846 128.141 91.6497C128.133 91.3042 128.408 91.0179 128.753 91.01C129.15 91.0415 129.385 91.2767 129.393 91.6221C129.658 103.841 129.396 121.334 129.393 121.508C129.388 121.851 129.107 122.126 128.766 122.126Z" fill="#12173F"/>
<path d="M113.957 131.587C113.692 131.587 113.446 131.418 113.361 131.152L112.419 128.213C112.314 127.883 112.495 127.531 112.825 127.426C113.152 127.321 113.506 127.502 113.612 127.83L114.554 130.77C114.659 131.1 114.478 131.452 114.148 131.557C114.085 131.578 114.02 131.587 113.957 131.587Z" fill="#12173F"/>
<path d="M130.037 131.587C129.765 131.587 129.515 131.41 129.435 131.137L128.283 127.179C128.186 126.847 128.378 126.5 128.71 126.404C129.045 126.305 129.389 126.499 129.486 126.83L130.638 130.787C130.736 131.12 130.544 131.466 130.211 131.562C130.152 131.579 130.093 131.587 130.037 131.587Z" fill="#12173F"/>
<path d="M104.519 75.5363C103.438 75.5363 100.965 75.2998 99.3178 73.3058C97.4814 71.0846 97.3067 67.4658 98.7989 62.5478C98.8987 62.2181 99.2455 62.0316 99.5805 62.1301C99.9102 62.2299 100.098 62.5793 99.9969 62.9103C98.636 67.3948 98.7293 70.6209 100.274 72.4993C101.953 74.5406 104.889 74.27 104.921 74.2687C105.262 74.2437 105.573 74.4841 105.607 74.827C105.643 75.1698 105.393 75.4772 105.051 75.5139C105.019 75.5179 104.824 75.5363 104.519 75.5363Z" fill="#12173F"/>
<path d="M84.7333 120.933C83.9044 120.933 82.9981 120.82 82.0076 120.561C81.6727 120.473 81.4717 120.132 81.5597 119.798C81.6464 119.464 81.9866 119.263 82.3229 119.35C89.2007 121.148 91.3339 115.005 91.4206 114.744C91.5296 114.415 91.883 114.238 92.21 114.347C92.5384 114.455 92.7158 114.808 92.6094 115.135C92.5884 115.199 90.6298 120.933 84.7333 120.933Z" fill="#12173F"/>
<path d="M73.1976 143.911C73.1254 143.911 73.0518 143.899 72.9795 143.872L67.2656 141.757C66.9411 141.637 66.7769 141.277 66.8964 140.953C67.016 140.628 67.3759 140.463 67.7003 140.584L73.4143 142.699C73.7388 142.818 73.903 143.178 73.7834 143.502C73.6915 143.755 73.4524 143.911 73.1976 143.911Z" fill="white"/>
<path d="M3.56574 101.464C3.31879 101.575 3.01666 101.517 2.83145 101.301L0.150464 98.1705C-0.0741561 97.9078 -0.0439495 97.5137 0.218764 97.2878C0.482791 97.0605 0.876865 97.0934 1.10149 97.3561L3.78247 100.486C4.00709 100.749 3.97689 101.143 3.71417 101.369C3.6682 101.408 3.61697 101.439 3.56574 101.464Z" fill="#ED2E5D"/>
<path d="M5.5321 110.272C5.28515 110.384 4.98304 110.326 4.79783 110.109L2.11685 106.979C1.89223 106.716 1.92245 106.322 2.18516 106.096C2.44918 105.869 2.84325 105.902 3.06787 106.165L5.74884 109.295C5.97346 109.558 5.94324 109.952 5.68053 110.178C5.63456 110.217 5.58464 110.247 5.5321 110.272Z" fill="#ED2E5D"/>
<path d="M179.603 141.331C179.579 141.263 179.567 141.19 179.568 141.113L179.713 135.021C179.721 134.676 180.008 134.402 180.353 134.412C180.698 134.419 180.971 134.706 180.963 135.053L180.819 141.145C180.811 141.49 180.523 141.764 180.179 141.754C179.91 141.748 179.685 141.572 179.603 141.331Z" fill="#ED2E5D"/>
<path d="M108.817 49.2652C108.836 49.1956 108.866 49.1273 108.909 49.0642L114.014 41.6951C114.211 41.4114 114.601 41.3418 114.885 41.5375C115.17 41.7345 115.239 42.1234 115.042 42.4084L109.938 49.7775C109.741 50.0612 109.351 50.1308 109.067 49.9351C108.845 49.7827 108.753 49.5108 108.817 49.2652Z" fill="#ED2E5D"/>
<path d="M192.955 94.9798C190.72 94.9798 188.901 93.1618 188.901 90.9261C188.901 88.6917 190.72 86.8738 192.955 86.8738C195.189 86.8738 197.009 88.6917 197.009 90.9261C197.009 93.1618 195.189 94.9798 192.955 94.9798ZM192.955 88.0087C191.346 88.0087 190.037 89.317 190.037 90.9261C190.037 92.5352 191.346 93.8435 192.955 93.8435C194.564 93.8435 195.872 92.5339 195.872 90.9261C195.872 89.3183 194.564 88.0087 192.955 88.0087Z" fill="#ED2E5D"/>
</svg>
