<svg width="258" height="200" viewBox="0 0 258 200" fill="none" xmlns="http://www.w3.org/2000/svg">
<path d="M236.19 116.131L241.4 79.5416C235.612 79.5416 198.166 75.6674 167.081 100.042C167.081 100.042 135.72 129.347 149.531 150.714C154.385 158.226 155.618 165.371 167.528 167.577C173.4 170.778 181.808 171.513 186.102 170.65C198.602 168.225 214.184 156.592 210.498 148.901C215.619 145.04 219.381 142.295 219.381 142.295C223.459 143.054 227.852 142.814 231.567 140.936C239.219 137.07 242.484 127.974 240.203 119.934C239.561 117.672 237.967 116.478 236.19 116.131Z" fill="#7885DE"/>
<path d="M225.615 109.858C224.581 107.114 222.78 103.764 219.6 103.283C212.499 102.21 204.181 111.023 199.704 115.374C195.168 119.783 191.023 124.541 186.896 129.319C189.426 132.106 191.791 134.884 194.021 137.958C197.731 136.851 202.434 138.76 204.25 143.795C206.822 144.596 209.227 146.307 210.507 148.895C214.089 147.064 219.038 142.196 219.931 138.614C221.2 133.526 219.344 132.229 222.576 126.043C225.103 121.202 227.737 115.494 225.615 109.858Z" fill="#12173F"/>
<path d="M241.4 79.54H252.582C258.678 98.7582 259.197 113.091 252.293 132.228H225.629L241.4 79.54Z" fill="#7885DE"/>
<path d="M167.956 168.363C167.727 168.363 167.512 168.219 167.432 167.991C167.329 167.7 167.483 167.384 167.772 167.283C203.873 154.64 203.701 143.941 203.694 143.834C203.678 143.532 203.907 143.267 204.21 143.246C204.498 143.216 204.777 143.448 204.801 143.75C204.84 144.217 205.31 155.314 168.139 168.331C168.078 168.352 168.017 168.363 167.956 168.363Z" fill="#12173F"/>
<path d="M201.894 161.667C201.75 161.667 201.607 161.61 201.498 161.5C201.432 161.434 199.917 159.852 200.068 157.4C200.197 155.3 201.488 153.256 203.904 151.322C204.145 151.133 204.494 151.17 204.686 151.409C204.876 151.65 204.838 151.999 204.599 152.191C202.446 153.913 201.295 155.683 201.18 157.45C201.052 159.407 202.282 160.712 202.295 160.725C202.506 160.945 202.501 161.296 202.28 161.509C202.174 161.614 202.034 161.667 201.894 161.667Z" fill="#12173F"/>
<path d="M179.765 98.3327C179.765 90.7343 173.605 84.573 166.005 84.573C158.407 84.573 152.247 90.733 152.247 98.3327H136.378V114.243C129.174 114.681 123.461 120.645 123.461 127.959C123.461 135.274 129.174 141.24 136.378 141.676V157.586H195.633V98.3327H179.765Z" fill="#FFE86D"/>
<path d="M217.598 81.897C208.567 85.708 196.959 88.3604 189.527 94.8081C188.597 95.6147 187.588 96.0233 186.591 96.1284C157.285 132.228 159.495 134.958 165.425 139.018C172.402 143.795 191.746 133.518 203.727 114.512C203.727 114.512 219.427 126.84 234.713 112.827C245.706 102.749 229.334 89.6111 217.598 81.897Z" fill="#7885DE"/>
<path d="M184.582 98.8885C184.459 98.8885 184.335 98.8478 184.232 98.765C183.994 98.5706 183.957 98.2211 184.15 97.982C188.211 92.9795 191.143 89.6518 191.172 89.6177C191.374 89.3891 191.725 89.3655 191.956 89.5691C192.186 89.7714 192.208 90.1235 192.005 90.3534C191.976 90.3862 189.057 93.6967 185.013 98.6835C184.904 98.8175 184.744 98.8885 184.582 98.8885Z" fill="#12173F"/>
<path d="M172.877 136.366C172.731 136.366 172.586 136.308 172.477 136.195C172.264 135.973 172.27 135.622 172.492 135.409C175.754 132.278 177.427 127.764 176.471 124.675C175.953 122.998 174.678 121.944 172.785 121.629C172.483 121.579 172.277 121.292 172.328 120.989C172.379 120.685 172.67 120.481 172.968 120.532C175.269 120.915 176.891 122.27 177.533 124.345C178.606 127.814 176.81 132.804 173.262 136.21C173.154 136.315 173.016 136.366 172.877 136.366Z" fill="#12173F"/>
<path d="M186.102 110.115C186.012 110.115 185.92 110.093 185.836 110.047L181.244 107.527C180.975 107.38 180.876 107.043 181.023 106.773C181.171 106.503 181.512 106.406 181.777 106.553L186.369 109.072C186.638 109.219 186.737 109.557 186.59 109.826C186.49 110.012 186.298 110.115 186.102 110.115Z" fill="white"/>
<path d="M223.61 120.113C223.359 120.113 223.132 119.942 223.07 119.689C222.998 119.39 223.18 119.089 223.478 119.017C229.552 117.541 234.934 113.49 234.986 113.45C235.231 113.266 235.579 113.313 235.766 113.556C235.951 113.802 235.903 114.15 235.659 114.335C235.432 114.507 230.036 118.568 223.74 120.098C223.697 120.108 223.653 120.113 223.61 120.113Z" fill="#12173F"/>
<path d="M70.3963 128.015L54.5241 77.2754C42.8111 78.8177 32.1122 87.2885 25.6094 95.1352C18.451 100.716 14.3194 105.967 11.0535 116.324C-2.877 160.495 0.315307 194.378 0.315307 194.378C12.693 200.664 31.3109 202.994 48.2078 194.378V172.946L37.8728 162.029L63.4336 169.223L70.3963 128.015Z" fill="#7885DE"/>
<path d="M39.2601 197.909C42.2659 197.038 45.2624 195.881 48.2051 194.379V186.402C43.8857 188.868 41.2018 193.108 39.2601 197.909Z" fill="#12173F"/>
<path d="M43.548 125.081C38.9566 136.521 33.6703 145.231 41.9085 151.905C48.3825 157.149 57.1173 156.278 65.9139 154.541L70.3976 128.016L60.0547 94.958C52.7072 104.205 47.9174 114.193 43.548 125.081Z" fill="#12173F"/>
<path d="M30.3072 124.834C30.2993 124.834 30.2914 124.834 30.2822 124.833C29.9748 124.82 29.7383 124.56 29.7528 124.254C29.7607 124.063 30.8103 104.97 47.7598 82.098C47.9424 81.8523 48.2918 81.8011 48.5375 81.9824C48.7845 82.165 48.8357 82.5131 48.6531 82.7601C31.9033 105.362 30.8721 124.117 30.8629 124.303C30.8484 124.602 30.6028 124.834 30.3072 124.834Z" fill="#12173F"/>
<path d="M15.4006 128.447C15.3783 128.447 15.3546 128.446 15.331 128.443C15.0275 128.406 14.8094 128.128 14.8475 127.823C14.8646 127.677 16.7485 112.983 25.1023 94.9027C25.2311 94.6242 25.5608 94.5033 25.8406 94.6308C26.1178 94.7595 26.24 95.0893 26.1126 95.3691C17.831 113.293 15.9694 127.814 15.951 127.96C15.9156 128.241 15.6765 128.447 15.4006 128.447Z" fill="#12173F"/>
<path d="M25.5831 138.201C25.5253 138.201 25.4662 138.192 25.4084 138.174C25.1167 138.076 24.9591 137.762 25.0563 137.471L27.111 131.281C27.2082 130.99 27.5208 130.829 27.8138 130.929C28.1055 131.026 28.2631 131.34 28.1659 131.63L26.1112 137.82C26.0337 138.053 25.8156 138.201 25.5831 138.201Z" fill="#12173F"/>
<path d="M11.9731 136.409C11.9153 136.409 11.8575 136.4 11.801 136.382C11.5094 136.286 11.3491 135.973 11.445 135.68L12.8835 131.282C12.9794 130.99 13.2921 130.831 13.585 130.926C13.8767 131.022 14.0369 131.335 13.941 131.628L12.5025 136.026C12.425 136.261 12.2083 136.409 11.9731 136.409Z" fill="#12173F"/>
<path d="M101.165 32.2113V16.2971H101.154H41.9085V32.1667V59.6835V75.5531H57.7781C57.7781 67.952 63.9459 61.7947 71.5365 61.7947C79.1376 61.7947 85.295 67.952 85.295 75.5531H101.154H101.165V59.6402C108.366 59.2067 114.078 53.2385 114.078 45.9264C114.078 38.613 108.366 32.6449 101.165 32.2113Z" fill="#ED2E5D"/>
<path d="M87.3956 105.182C87.3956 112.773 93.5635 118.929 101.154 118.929V134.81H41.9085V75.5545H57.7781V75.544C57.7886 67.9429 63.9354 61.7974 71.5365 61.7974C79.1271 61.7974 85.2832 67.9429 85.295 75.544V75.5545H101.154V91.4135C93.5635 91.4135 87.3956 97.5814 87.3956 105.182Z" fill="white"/>
<path d="M101.154 135.366H41.9085C41.6011 135.366 41.3528 135.118 41.3528 134.811V75.5545C41.3528 75.2471 41.6011 74.9988 41.9085 74.9988H57.2342C57.5377 67.3569 63.8409 61.239 71.5379 61.239C79.2375 61.239 85.542 67.3635 85.8415 74.9988H101.155C101.463 74.9988 101.711 75.2471 101.711 75.5545V91.4122C101.711 91.7196 101.463 91.9679 101.155 91.9679C93.8748 91.9679 87.9526 97.8954 87.9526 105.181C87.9526 112.455 93.8748 118.373 101.155 118.373C101.463 118.373 101.711 118.622 101.711 118.929V134.811C101.71 135.118 101.461 135.366 101.154 135.366ZM42.4642 134.255H100.598V119.474C92.9618 119.183 86.8399 112.883 86.8399 105.182C86.8399 97.471 92.9618 91.1613 100.598 90.8683V76.1102H85.295C84.9876 76.1102 84.7393 75.8619 84.7393 75.5545C84.7275 68.2687 78.8053 62.3504 71.5365 62.3504C64.2678 62.3504 58.3443 68.2687 58.3325 75.5426C58.3325 75.8487 58.0829 76.1089 57.7768 76.1089H42.4642V134.255Z" fill="#12173F"/>
<path d="M53.996 38.2334C56.8321 38.2334 59.1312 35.9343 59.1312 33.0982C59.1312 30.262 56.8321 27.9629 53.996 27.9629C51.1598 27.9629 48.8607 30.262 48.8607 33.0982C48.8607 35.9343 51.1598 38.2334 53.996 38.2334Z" fill="white"/>
<path d="M64.8708 105.177C53.7937 120.906 51.4277 129.406 48.2065 135.429C44.4374 141.584 36.0941 150.495 32.2857 147.799C29.8369 146.066 27.1478 139.079 24.9171 141.311C22.9124 143.315 -7.6431 184.734 26.6118 189.776C50.1192 193.236 70.659 183.051 68.9854 150.249C74.2625 133.654 79.3058 120.008 81.635 112.439C86.5312 96.5264 70.9835 96.4975 64.8708 105.177Z" fill="#7885DE"/>
<path d="M75.8258 119.83C74.0208 119.83 72.4364 118.916 71.4617 117.305C69.5332 114.116 70.2176 109.062 73.3429 103.438C73.4927 103.168 73.8329 103.075 74.0996 103.222C74.3676 103.372 74.4648 103.711 74.315 103.979C71.4315 109.167 70.7207 113.934 72.4128 116.731C73.2089 118.048 74.4241 118.749 75.9296 118.719C76.2843 118.736 76.4905 118.954 76.4984 119.261C76.5063 119.567 76.2632 119.822 75.9558 119.83C75.9138 119.83 75.8691 119.83 75.8258 119.83Z" fill="#12173F"/>
<path d="M69.8104 136.409C69.7802 136.409 69.7499 136.407 69.7197 136.401L64.5306 135.554C64.2284 135.505 64.0222 135.22 64.0721 134.916C64.1207 134.612 64.4123 134.402 64.7105 134.457L69.8997 135.304C70.2019 135.353 70.4081 135.638 70.3582 135.943C70.3135 136.216 70.0771 136.409 69.8104 136.409Z" fill="white"/>
<path d="M199.43 19.9006L180.081 75.9091L168.286 71.834C170.767 64.6493 166.959 56.8196 159.774 54.3367C152.6 51.8578 144.76 55.6636 142.277 62.8482L124.083 56.5635L129.265 41.5636C136.439 44.0425 144.279 40.2367 146.761 33.0521C149.242 25.8674 145.423 18.0338 138.249 15.5548L143.43 0.554932L199.43 19.9006Z" fill="white"/>
<path d="M180.082 76.4648C180.022 76.4648 179.959 76.4556 179.9 76.4346L168.105 72.3608C167.964 72.3135 167.851 72.211 167.787 72.0783C167.721 71.9456 167.713 71.7932 167.76 71.654C170.137 64.7728 166.472 57.24 159.592 54.8635C156.259 53.7114 152.679 53.9269 149.508 55.4705C146.335 57.0127 143.953 59.6993 142.801 63.0321C142.703 63.3225 142.386 63.4775 142.094 63.3763L123.901 57.0916C123.76 57.0443 123.647 56.9418 123.583 56.8091C123.517 56.6764 123.509 56.524 123.557 56.3848L128.739 41.3836C128.787 41.243 128.889 41.13 129.022 41.0657C129.153 41 129.305 40.9908 129.446 41.0394C132.779 42.1902 136.359 41.9734 139.53 40.4338C142.704 38.8902 145.084 36.205 146.237 32.8721C147.389 29.5379 147.172 25.9554 145.628 22.7828C144.085 19.6115 141.401 17.2311 138.071 16.0816C137.78 15.9818 137.627 15.6652 137.726 15.3748L142.908 0.374944C142.955 0.234378 143.057 0.121399 143.19 0.0570278C143.321 -0.00865744 143.474 -0.017853 143.614 0.0307541L199.614 19.3751C199.754 19.4224 199.867 19.5248 199.932 19.6575C199.997 19.7902 200.005 19.9426 199.958 20.0818L180.61 76.0904C180.528 76.3203 180.311 76.4648 180.082 76.4648ZM168.982 71.4885L179.737 75.2036L198.723 20.2461L143.776 1.26301L138.955 15.2224C142.324 16.5322 145.036 19.0269 146.628 22.2981C148.303 25.7373 148.537 29.622 147.287 33.236C146.039 36.85 143.457 39.7625 140.017 41.4335C136.745 43.0231 133.073 43.3147 129.614 42.2625L124.792 56.2232L141.945 62.1493C143.256 58.777 145.752 56.0642 149.026 54.4733C152.463 52.801 156.347 52.5685 159.957 53.8152C163.574 55.0645 166.485 57.6446 168.157 61.0826C169.745 64.3498 170.034 68.0242 168.982 71.4885Z" fill="#12173F"/>
<path d="M177.289 28.789C177.119 28.789 176.952 28.7115 176.843 28.5657C176.659 28.3201 176.709 27.9719 176.956 27.788L183.475 22.9233C183.719 22.7394 184.069 22.7893 184.253 23.0363C184.436 23.282 184.387 23.6301 184.14 23.814L177.621 28.6787C177.521 28.7536 177.405 28.789 177.289 28.789Z" fill="#ED2E5D"/>
<path d="M177.289 38.7889C177.119 38.7889 176.952 38.7114 176.843 38.5656C176.659 38.3199 176.709 37.9718 176.956 37.7879L180.216 35.3562C180.461 35.1723 180.809 35.2222 180.993 35.4692C181.177 35.7148 181.127 36.063 180.88 36.2469L177.621 38.6786C177.521 38.7535 177.405 38.7889 177.289 38.7889Z" fill="#ED2E5D"/>
<path d="M119.752 161.398C119.641 161.398 119.529 161.364 119.436 161.299C116.498 159.258 115.567 155.345 117.269 152.195C118.972 149.046 122.754 147.683 126.074 149.022C126.221 149.081 126.334 149.201 126.389 149.349C126.442 149.498 126.43 149.662 126.355 149.801L120.242 161.105C120.167 161.245 120.036 161.345 119.884 161.381C119.838 161.393 119.796 161.398 119.752 161.398ZM123.444 149.621C121.331 149.621 119.308 150.76 118.247 152.724C116.915 155.19 117.499 158.21 119.575 160.003L125.065 149.851C124.529 149.696 123.982 149.621 123.444 149.621Z" fill="#ED2E5D"/>
<path d="M19.9486 72.119C19.8068 72.119 19.6649 72.0652 19.5558 71.9561L15.0065 67.4054C14.7897 67.1887 14.7897 66.8366 15.0065 66.6198C15.2232 66.4031 15.5753 66.4031 15.7921 66.6198L20.3414 71.1705C20.5582 71.3873 20.5582 71.7394 20.3414 71.9561C20.2337 72.0639 20.0918 72.119 19.9486 72.119Z" fill="#ED2E5D"/>
<path d="M193.933 67.5683C192.689 67.5683 191.678 66.5568 191.678 65.314C191.678 64.0699 192.689 63.0583 193.933 63.0583C195.177 63.0583 196.189 64.0699 196.189 65.314C196.189 66.5568 195.177 67.5683 193.933 67.5683ZM193.933 64.1697C193.303 64.1697 192.789 64.6834 192.789 65.314C192.789 65.9446 193.303 66.4569 193.933 66.4569C194.564 66.4569 195.077 65.9446 195.077 65.314C195.077 64.6834 194.564 64.1697 193.933 64.1697Z" fill="#ED2E5D"/>
</svg>
