<svg width="179" height="150" viewBox="0 0 179 150" fill="none" xmlns="http://www.w3.org/2000/svg">
<path d="M51.2172 32.0433C79.9487 0.233156 99.4452 -0.793424 120.994 0.233158C142.542 1.25974 168.719 1.56653 168.719 1.56653C173.298 6.45379 188.324 30.4868 168.709 51.027H144.082C144.082 51.027 132.281 66.4193 117.402 53.5918C102.524 40.7644 51.2172 32.0433 51.2172 32.0433Z" fill="#F7989C"/>
<path d="M137.615 51.0227C141.245 47.7069 142.915 42.8712 146.487 39.49C149.296 36.8297 153.04 35.0533 155.335 31.8641C158.214 27.8661 155.918 22.538 150.829 22.8877C142.341 23.4702 133.195 30.7453 126.318 35.0308C119.85 39.0609 113.49 43.2563 107.126 47.4463C111.313 49.3621 114.882 51.4174 117.403 53.5907C118.99 54.9585 120.539 55.9893 122.045 56.7681C127.597 56.1556 133.384 54.8887 137.615 51.0227Z" fill="#12173F"/>
<path d="M122.814 64.7094L95.5555 42.3391L75.3746 25.783L55.1948 42.3391L29.4606 63.4468L17.2982 73.4251H133.441L122.814 64.7094Z" fill="#283071"/>
<path d="M133.441 73.3821H17.2982V149.688H133.441V73.3821Z" fill="#FFE86D"/>
<path d="M132.656 18.1882L122.814 84.0214L95.5555 111.218L75.3746 131.346L55.1949 111.218L29.4606 85.5565L39.4068 18.1882H132.656Z" fill="white"/>
<path d="M29.4606 86.0787C29.4359 86.0787 29.4091 86.0777 29.3834 86.0734C29.098 86.0315 28.9006 85.7655 28.9436 85.4802L38.8897 18.1119C38.9272 17.8555 39.1472 17.6667 39.4057 17.6667H132.654C132.806 17.6667 132.95 17.7333 133.05 17.848C133.149 17.9628 133.194 18.1151 133.171 18.2653L123.33 84.0996C123.287 84.3849 123.024 84.5823 122.737 84.5394C122.452 84.4965 122.255 84.2305 122.297 83.9462L132.049 18.7116H39.8562L29.9755 85.6346C29.939 85.8921 29.7159 86.0787 29.4606 86.0787Z" fill="#12173F"/>
<path d="M75.3746 131.868C75.2416 131.868 75.1075 131.816 75.0056 131.715L16.9292 73.7954C16.7243 73.5916 16.7243 73.2612 16.9281 73.0574C17.1319 72.8525 17.4623 72.8535 17.6661 73.0563L75.3746 130.609L133.072 73.0563C133.277 72.8525 133.607 72.8525 133.81 73.0574C134.014 73.2612 134.014 73.5916 133.809 73.7954L75.7426 131.715C75.6417 131.817 75.5087 131.868 75.3746 131.868Z" fill="white"/>
<path d="M95.9235 110.848C95.7196 110.645 95.3903 110.645 95.1865 110.848L75.3746 130.609L55.5639 110.848C55.3601 110.645 55.0307 110.645 54.8269 110.848L17.0065 149.108C16.8938 149.219 16.8434 149.37 16.8541 149.517C16.8638 149.642 16.9174 149.763 17.0161 149.857C17.0933 149.93 17.1867 149.975 17.2832 149.992C17.4452 150.021 17.6179 149.972 17.7434 149.847L55.1949 111.955L75.0067 131.715C75.2105 131.918 75.5399 131.918 75.7437 131.715L95.5555 111.955L132.861 149.771C132.983 149.893 133.149 149.942 133.307 149.923C133.424 149.908 133.538 149.854 133.626 149.762C133.696 149.688 133.741 149.6 133.761 149.508C133.799 149.335 133.75 149.148 133.616 149.015L95.9235 110.848Z" fill="white"/>
<path d="M101.187 82.8715H89.0324C88.7749 82.8715 88.5571 82.6848 88.5175 82.4306C88.5014 82.3405 88.0605 80.1007 84.2824 79.4721C78.3718 78.4884 72.872 82.717 72.8173 82.761C72.725 82.8329 72.6113 82.8715 72.4955 82.8715H44.5096C44.221 82.8715 43.9872 82.6376 43.9872 82.3491C43.9872 82.0605 44.221 81.8267 44.5096 81.8267H72.3196C73.2775 81.1176 78.567 77.4618 84.453 78.4423C88.0058 79.0333 89.1032 80.9513 89.4239 81.8267H101.186C101.475 81.8267 101.709 82.0605 101.709 82.3491C101.709 82.6376 101.476 82.8715 101.187 82.8715Z" fill="#12173F"/>
<path d="M99.9161 95.0263H52.851C52.5624 95.0263 52.3286 94.7924 52.3286 94.5038C52.3286 94.2153 52.5624 93.9814 52.851 93.9814H99.9161C100.205 93.9814 100.439 94.2153 100.439 94.5038C100.439 94.7924 100.205 95.0263 99.9161 95.0263Z" fill="#12173F"/>
<path d="M114.191 70.1513H92.9906C92.7021 70.1513 92.4682 69.9174 92.4682 69.6289C92.4682 69.3403 92.7021 69.1064 92.9906 69.1064H114.191C114.479 69.1064 114.713 69.3403 114.713 69.6289C114.713 69.9174 114.479 70.1513 114.191 70.1513Z" fill="#12173F"/>
<path d="M57.7007 33.248H52.3135C52.025 33.248 51.7911 33.0141 51.7911 32.7255C51.7911 32.437 52.025 32.2031 52.3135 32.2031H57.7007C57.9892 32.2031 58.2231 32.437 58.2231 32.7255C58.222 33.0152 57.9892 33.248 57.7007 33.248Z" fill="#12173F"/>
<path d="M88.1559 71.6134C86.7335 71.6134 85.5761 70.456 85.5761 69.0325C85.5761 67.6101 86.7335 66.4526 88.1559 66.4526C89.5794 66.4526 90.7368 67.6101 90.7368 69.0325C90.7368 70.456 89.5794 71.6134 88.1559 71.6134ZM88.1559 67.4964C87.3085 67.4964 86.6198 68.1851 86.6198 69.0325C86.6198 69.8799 87.3085 70.5697 88.1559 70.5697C89.0034 70.5697 89.6931 69.8799 89.6931 69.0325C89.6931 68.1851 89.0034 67.4964 88.1559 67.4964Z" fill="#12173F"/>
<path d="M47.3598 116.566H26.9612V140.333H47.3598V116.566Z" fill="#ED2E5D"/>
<path d="M31.0932 125.98C30.9302 125.98 30.7704 125.904 30.6684 125.762L28.7579 123.087C28.5906 122.852 28.6453 122.526 28.8792 122.359C29.113 122.191 29.4402 122.246 29.6075 122.48L31.518 125.154C31.6854 125.389 31.6307 125.715 31.3968 125.883C31.3046 125.949 31.1984 125.98 31.0932 125.98Z" fill="white"/>
<path d="M3.96122 100.759C3.80997 100.759 3.65979 100.693 3.55681 100.567L0.117701 96.3629C-0.0646596 96.1397 -0.0314053 95.8104 0.191718 95.6281C0.414842 95.4457 0.743089 95.4779 0.926522 95.7021L4.36563 99.906C4.54799 100.129 4.51474 100.458 4.29161 100.641C4.194 100.72 4.07707 100.759 3.96122 100.759Z" fill="#ED2E5D"/>
<path d="M142.298 124.453C142.164 124.453 142.031 124.401 141.929 124.299C141.725 124.095 141.725 123.765 141.929 123.561L146.514 118.975C146.718 118.772 147.049 118.772 147.252 118.975C147.456 119.179 147.456 119.51 147.252 119.713L142.667 124.299C142.565 124.401 142.431 124.453 142.298 124.453Z" fill="#ED2E5D"/>
<path d="M148.794 124.833C148.66 124.833 148.527 124.782 148.425 124.68C148.221 124.476 148.221 124.146 148.425 123.942L153.011 119.356C153.215 119.152 153.545 119.152 153.749 119.356C153.953 119.56 153.953 119.89 153.749 120.094L149.163 124.68C149.061 124.783 148.927 124.833 148.794 124.833Z" fill="#ED2E5D"/>
<path d="M90.3765 7.51792C77.2068 18.0937 65.1657 33.4775 58.6822 41.4777C46.2774 56.7842 47.3308 60.854 51.4275 63.3256C62.5053 70.0096 77.6949 53.9308 88.1592 42.3037C88.1592 42.3037 118.281 51.6985 148.511 26.1198C178.741 0.541022 90.3765 7.51792 90.3765 7.51792Z" fill="#F7989C"/>
<path d="M54.4343 62.1027C54.282 62.1027 54.1318 62.0373 54.0288 61.9097C53.8475 61.6855 53.8808 61.3572 54.105 61.1748C56.7728 59.0069 59.5726 55.4691 59.4288 52.0429C59.3452 50.0498 58.2617 48.3302 56.2107 46.9303C55.9726 46.7673 55.9114 46.4433 56.0734 46.2052C56.2354 45.966 56.5604 45.907 56.7986 46.0679C59.1381 47.663 60.3739 49.6582 60.4715 51.9989C60.6313 55.8124 57.6277 59.658 54.7636 61.9858C54.666 62.0641 54.5501 62.1027 54.4343 62.1027Z" fill="#12173F"/>
<path d="M75.7244 34.0095C75.5967 34.0095 75.4691 33.9634 75.3693 33.8701L71.2297 30.0255C71.0184 29.8303 71.0066 29.4999 71.2029 29.2875C71.3981 29.0761 71.7296 29.0643 71.9409 29.2606L76.0805 33.1052C76.2918 33.3005 76.3036 33.6309 76.1073 33.8433C76.0044 33.9538 75.8649 34.0095 75.7244 34.0095Z" fill="white"/>
<path d="M78.8577 18.0423C78.7043 18.0423 78.5531 17.9747 78.449 17.8471C78.2688 17.6218 78.3053 17.2935 78.5305 17.1133L85.9225 11.1995C86.1478 11.0182 86.4761 11.0579 86.6563 11.281C86.8365 11.5063 86.8 11.8345 86.5747 12.0147L79.1827 17.9286C79.0873 18.0047 78.9714 18.0423 78.8577 18.0423Z" fill="#12173F"/>
</svg>
