<svg id="_10806" data-name="10806" xmlns="http://www.w3.org/2000/svg" width="30" height="30" viewBox="0 0 30 30">
  <path id="Path_276" data-name="Path 276" d="M297.277,508.668Zm0,0" transform="translate(-279.858 -478.863)" fill="#fff"/>
  <path id="Path_277" data-name="Path 277" d="M299.519,507.793l-.179.031Zm0,0" transform="translate(-281.801 -478.039)" fill="#fff"/>
  <path id="Path_278" data-name="Path 278" d="M285.137,510.34Zm0,0" transform="translate(-268.43 -480.437)" fill="#fff"/>
  <path id="Path_279" data-name="Path 279" d="M290.055,509.738Zm0,0" transform="translate(-273.06 -479.871)" fill="#fff"/>
  <path id="Path_280" data-name="Path 280" d="M309.367,506.41Zm0,0" transform="translate(-291.24 -476.738)" fill="#fff"/>
  <path id="Path_281" data-name="Path 281" d="M324.612,502.113l-.128.035Zm0,0" transform="translate(-305.471 -472.692)" fill="#fff"/>
  <path id="Path_282" data-name="Path 282" d="M319.2,503.543l-.139.036Zm0,0" transform="translate(-300.364 -474.039)" fill="#fff"/>
  <path id="Path_283" data-name="Path 283" d="M312.214,505.254l-.148.033Zm0,0" transform="translate(-293.781 -475.649)" fill="#fff"/>
  <path id="Path_284" data-name="Path 284" d="M277.527,511.09Zm0,0" transform="translate(-261.266 -481.143)" fill="#fff"/>
  <path id="Path_285" data-name="Path 285" d="M30,15A15,15,0,1,0,15,30c.088,0,.176,0,.264,0V18.32H12.041V14.564h3.223V11.8c0-3.205,1.957-4.95,4.816-4.95A26.514,26.514,0,0,1,22.969,7v3.35H21c-1.555,0-1.857.739-1.857,1.824v2.392H22.86l-.485,3.756H19.14v11.1A15.008,15.008,0,0,0,30,15Zm0,0" fill="#fff"/>
  <path id="Path_286" data-name="Path 286" d="M272.914,511.43Zm0,0" transform="translate(-256.923 -481.463)" fill="#fff"/>
  <path id="Path_287" data-name="Path 287" d="M264.754,511.836Zm0,0" transform="translate(-249.241 -481.846)" fill="#fff"/>
</svg>
