<svg width="291" height="200" viewBox="0 0 291 200" fill="none" xmlns="http://www.w3.org/2000/svg">
<path d="M178.987 34.5002C176.85 25.6543 163.205 29.3997 165.345 38.2609C166.01 41.0099 166.274 43.9179 166.238 46.8767C165.137 45.9784 163.836 45.3271 162.363 45.0429C156.981 44.0059 153.552 47.9611 150.142 51.4579C142.216 59.5882 135.531 69.4373 126.999 76.8605C125.678 78.0109 124.986 79.3067 124.77 80.6093C123.388 82.9659 123.538 86.0296 124.834 88.3218C123.398 89.4959 121.872 90.5498 120.253 91.4616C120.011 93.0637 114.379 99.8982 114.092 101.49C121.725 103.051 134.45 99.213 139.269 94.0872C150.901 97.5281 163.258 91.5208 170.258 81.3994C179.004 68.7606 182.567 49.3229 178.987 34.5002Z" fill="#12173F"/>
<path d="M279.559 65.3618H150.907V145.955H279.559V65.3618Z" fill="#FFE86D"/>
<path d="M210.054 75.5798H162.04V130.669H210.054V75.5798Z" fill="#ED2E5D"/>
<path d="M263.373 84.6235H221.463V90.8321H263.373V84.6235Z" fill="#12173F"/>
<path d="M259.775 104.041H221.462C220.957 104.041 220.547 103.632 220.547 103.126C220.547 102.62 220.957 102.21 221.462 102.21H259.775C260.28 102.21 260.69 102.62 260.69 103.126C260.69 103.632 260.28 104.041 259.775 104.041Z" fill="#12173F"/>
<path d="M201.152 99.7949L195.745 102.513C194.883 110.668 192.697 122.2 192.697 122.2C192.697 122.2 184.34 122.904 179.148 123.264L176.962 130.669H162.04V75.5798H182.804C188.945 78.7298 193.575 84.4241 195.314 91.2535L201.152 99.7949Z" fill="white"/>
<path d="M189.481 92.8673C189.481 92.8673 186.722 95.7026 183.316 95.7026C179.913 95.7026 177.152 92.8673 177.152 92.8673C177.152 92.8673 179.911 90.032 183.316 90.032C186.722 90.032 189.481 92.8673 189.481 92.8673Z" fill="#B8CFE8"/>
<path d="M184.878 31.6463C176.262 9.10936 150.907 6.14041 150.907 6.14041C150.907 6.14041 143.15 -3.60381 123.841 1.45777C94.725 9.08737 38.1273 75.8573 38.1273 75.8573V156.426H103.977L104.473 112.561L166.362 46.156L184.878 31.6463Z" fill="#7885DE"/>
<path d="M77.9044 58.69C140.007 4.56381 142.502 8.77279 176.632 24.4092C210.763 40.0457 231.131 41.7865 223.784 58.4972C216.895 74.1641 166.854 59.9537 154.919 56.3453C142.983 52.7369 116.592 77.7928 93.1772 102.52C69.7622 127.248 77.9044 58.69 77.9044 58.69Z" fill="#7885DE"/>
<path d="M36.493 148.174C87.136 207.631 94.0737 207.631 146.273 189.102C190.002 173.58 193.764 158.226 181.735 148.568C168.869 138.241 122.215 156.969 122.215 156.969C122.215 156.969 107.034 134.884 90.3773 102.52C73.7224 70.1579 36.493 148.174 36.493 148.174Z" fill="#7885DE"/>
<path d="M117.186 85.967C112.781 77.9974 100.56 85.1246 104.97 93.1077C109.707 101.678 103.209 118.48 91.68 115.831C82.8188 113.794 79.0362 127.429 87.9193 129.473C111.696 134.937 128.118 105.745 117.186 85.967Z" fill="#7885DE"/>
<path d="M9.4106 68.676H50.5038V156.427H9.4106C-2.6225 126.042 -3.64091 96.6958 9.4106 68.676Z" fill="#7885DE"/>
<path d="M90.1203 56.7763C89.8411 56.7763 89.5654 56.6461 89.3894 56.4025C89.1002 55.9982 89.1915 55.4365 89.5958 55.1456C96.4439 50.2193 102.466 45.112 108.293 40.1739C130.339 21.4755 147.753 6.7069 183.623 26.5354C184.057 26.7756 184.215 27.322 183.974 27.7585C183.734 28.195 183.189 28.3523 182.751 28.1104C147.977 8.89089 131.817 22.5853 109.456 41.5459C103.605 46.5094 97.5553 51.6403 90.6481 56.6089C90.4874 56.7222 90.303 56.7763 90.1203 56.7763Z" fill="#12173F"/>
<path d="M90.1202 34.6931C89.8445 34.6931 89.5721 34.5662 89.3962 34.3277C89.1001 33.9267 89.1864 33.3634 89.5857 33.069C91.3366 31.7766 132.651 1.52717 151.084 5.25738C151.572 5.3555 151.886 5.83256 151.788 6.31808C151.69 6.80698 151.218 7.11995 150.727 7.02183C133.101 3.43541 91.076 34.2059 90.6548 34.5171C90.4924 34.6356 90.3063 34.6931 90.1202 34.6931Z" fill="#12173F"/>
<path d="M74.9101 62.8381C74.5532 62.8381 74.2165 62.6249 74.0761 62.2748C73.8917 61.8129 74.115 61.2885 74.5752 61.1041L83.8085 57.3992C84.272 57.2182 84.7948 57.4364 84.9792 57.8983C85.1636 58.3601 84.9402 58.8845 84.4801 59.0689L75.2468 62.7738C75.1351 62.8161 75.0235 62.8381 74.9101 62.8381Z" fill="#12173F"/>
<path d="M76.5341 44.9026C76.1772 44.9026 75.8405 44.6895 75.7001 44.3393C75.5157 43.8775 75.739 43.353 76.1992 43.1686L82.1845 40.7647C82.648 40.5837 83.1707 40.8019 83.3551 41.2637C83.5395 41.7256 83.3162 42.25 82.8561 42.4344L76.8708 44.8384C76.7591 44.8823 76.6475 44.9026 76.5341 44.9026Z" fill="#12173F"/>
<path d="M212.466 55.3623C212.366 55.3623 212.262 55.3454 212.162 55.3098C211.581 55.1018 197.926 50.1383 195.514 42.9469C194.803 40.8306 195.109 38.7413 196.424 36.735C196.696 36.3171 197.258 36.2004 197.667 36.4744C198.083 36.7451 198.2 37.3034 197.928 37.7178C196.919 39.2624 196.686 40.7849 197.217 42.3734C199.352 48.7376 212.635 53.5674 212.769 53.6148C213.236 53.7822 213.48 54.2982 213.312 54.7651C213.182 55.1339 212.837 55.3623 212.466 55.3623Z" fill="#12173F"/>
<path d="M159.462 176.905C159.11 176.905 158.776 176.697 158.633 176.353C157.064 172.618 157.134 169.18 158.834 166.139C163.388 157.997 178.053 155.635 178.678 155.538C179.165 155.469 179.628 155.801 179.705 156.29C179.781 156.782 179.444 157.24 178.953 157.318C178.81 157.342 164.527 159.643 160.404 167.02C158.988 169.554 158.951 172.461 160.292 175.66C160.485 176.118 160.269 176.646 159.81 176.837C159.695 176.881 159.577 176.905 159.462 176.905Z" fill="#12173F"/>
<path d="M101.751 198.663C101.702 198.663 101.653 198.66 101.604 198.651C101.113 198.57 100.781 198.108 100.863 197.618L102.169 189.697C102.25 189.207 102.718 188.868 103.202 188.956C103.693 189.038 104.024 189.499 103.943 189.99L102.637 197.91C102.564 198.35 102.182 198.663 101.751 198.663Z" fill="white"/>
<path d="M97.5823 198.663C97.5333 198.663 97.4842 198.66 97.4351 198.651C96.9446 198.57 96.613 198.108 96.6942 197.618L98.0002 189.697C98.0814 189.207 98.5483 188.868 99.0338 188.956C99.5244 189.038 99.856 189.499 99.7748 189.99L98.4688 197.91C98.396 198.35 98.0137 198.663 97.5823 198.663Z" fill="white"/>
<path d="M243.02 37.8379C242.859 37.8379 242.699 37.7956 242.551 37.706C242.128 37.4471 241.995 36.894 242.252 36.4693L249.679 24.2941C249.938 23.8695 250.489 23.7375 250.915 23.9947C251.338 24.2535 251.472 24.8067 251.215 25.2313L243.788 37.4065C243.619 37.6857 243.323 37.8379 243.02 37.8379Z" fill="#ED2E5D"/>
<path d="M284.367 156.848C284.215 156.848 284.059 156.809 283.919 156.728C283.489 156.481 283.338 155.929 283.587 155.499L288.544 146.882C288.791 146.447 289.346 146.303 289.772 146.55C290.202 146.797 290.352 147.349 290.104 147.779L285.147 156.396C284.981 156.685 284.678 156.848 284.367 156.848Z" fill="#ED2E5D"/>
<path d="M268.407 49.6731H263.637C263.14 49.6731 262.737 49.2705 262.737 48.7731V44.0025C262.737 43.5052 263.14 43.1025 263.637 43.1025H268.407C268.905 43.1025 269.307 43.5052 269.307 44.0025V48.7731C269.307 49.2722 268.905 49.6731 268.407 49.6731ZM264.537 47.8748H267.509V44.9025H264.537V47.8748Z" fill="#ED2E5D"/>
</svg>
