<svg width="292" height="200" viewBox="0 0 292 200" fill="none" xmlns="http://www.w3.org/2000/svg">
<path d="M92.3853 60.4594C71.468 52.419 50.6661 44.138 30.047 35.3711C6.29294 45.1563 3.05047 53.1069 0.200874 97.2315C-2.8203 144.026 28.6856 148.774 64.5084 147.912C88.8622 147.325 93.4677 94.6882 93.92 61.0447C93.41 60.8491 92.8969 60.655 92.3853 60.4594Z" fill="#FFE86D"/>
<path d="M55.8265 86.5661C55.5923 86.5629 55.3662 86.5485 55.1465 86.5261C51.9538 92.4562 26.3315 116.629 28.9902 120.574C34.2677 127.985 45.5987 133.04 47.8309 143.436C48.1404 144.878 48.3457 146.318 48.4852 147.758C53.6536 148.026 59.024 148.043 64.5083 147.91C83.5014 147.453 90.4818 115.339 92.8503 85.2656C80.5203 86.0081 68.1886 86.7057 55.8265 86.5661Z" fill="#12173F"/>
<path d="M115.857 46.1106H79.6207V67.8538H115.857V46.1106Z" fill="#ED2E5D"/>
<path d="M245.907 56.9829H60.7175V183.872H245.907V56.9829Z" fill="#283071"/>
<path d="M110.662 146.369H60.7175V183.872H110.662V146.369Z" fill="#12173F"/>
<path d="M132.379 82.23C130.12 82.23 128.28 80.3906 128.28 78.1312C128.28 75.8701 130.12 74.0308 132.379 74.0308C134.639 74.0308 136.478 75.8701 136.478 78.1312C136.478 80.3906 134.639 82.23 132.379 82.23ZM132.379 75.4596C130.907 75.4596 129.709 76.6575 129.709 78.1312C129.709 79.6049 130.907 80.8012 132.379 80.8012C133.851 80.8012 135.049 79.6033 135.049 78.1312C135.049 76.6591 133.851 75.4596 132.379 75.4596Z" fill="white"/>
<path d="M10.0165 48.7758C27.2151 12.3629 63.3041 -16.1299 84.2487 10.3584C105.193 36.8466 100.881 47.7399 86.096 45.9887C71.3124 44.2392 65.4737 28.8527 65.4737 28.8527L29.165 74.916L10.0165 48.7758Z" fill="#FFE86D"/>
<path d="M65.6165 29.2006C65.6566 29.1204 65.6918 29.0386 65.7335 28.96C65.7544 28.9215 65.7801 28.8895 65.8025 28.8526C60.3599 20.2782 54.7569 27.9241 49.4602 35.3712C44.2197 42.7397 37.0933 48.5592 32.3466 56.2067C28.6391 62.1769 29.3046 66.0336 34.4249 68.2401L65.4722 28.8542C65.4738 28.8526 65.5219 28.9777 65.6165 29.2006Z" fill="#12173F"/>
<path d="M84.4106 38.5464C84.2022 38.5464 83.9953 38.455 83.8542 38.2802C83.7676 38.1728 75.3391 27.4543 83.9055 18.8863C84.1845 18.6072 84.6367 18.6072 84.9158 18.8863C85.1948 19.1653 85.1948 19.6175 84.9158 19.8965C77.2586 27.5537 84.6496 36.9877 84.9687 37.3854C85.2157 37.6917 85.1659 38.1439 84.858 38.3892C84.7249 38.4935 84.5678 38.5464 84.4106 38.5464Z" fill="#12173F"/>
<path d="M10.0165 68.24C26.4438 38.6713 56.7903 39.7858 66.0126 44.2085C75.2348 48.6312 95.7192 76.861 95.6086 86.2613C95.429 101.588 81.1265 98.2434 81.1265 98.2434C98.588 124.862 81.8673 130.662 73.2929 124.862C65.1787 119.372 47.0035 91.7536 46.9618 91.6863L10.0165 68.24Z" fill="#FFE86D"/>
<path d="M18.7 55.4692C18.522 55.4692 18.3456 55.4035 18.2077 55.272C17.9222 54.9993 17.911 54.5471 18.182 54.2617C27.369 44.6112 47.3691 40.7353 55.0632 41.4297C55.4561 41.4666 55.7447 41.8129 55.7094 42.2074C55.6741 42.6003 55.3326 42.8809 54.9317 42.8537C47.4701 42.1529 28.0955 45.923 19.2164 55.2479C19.0768 55.3954 18.8892 55.4692 18.7 55.4692Z" fill="#12173F"/>
<path d="M81.8673 100.774C81.6108 100.774 81.3622 100.636 81.2339 100.392C81.1682 100.267 74.4924 87.6467 64.7938 75.36C61.7101 71.4536 57.1286 69.2006 51.5433 68.8446C41.0044 68.1727 27.9752 74.0947 17.5582 84.2984C17.276 84.5726 16.8238 84.571 16.548 84.2872C16.2721 84.005 16.2753 83.5528 16.5576 83.2769C27.2568 72.799 40.6917 66.731 51.6331 67.4174C57.6338 67.799 62.5728 70.2397 65.9147 74.4748C75.6983 86.8674 82.4318 99.6 82.4976 99.7282C82.682 100.078 82.5473 100.509 82.1977 100.692C82.0934 100.747 81.9796 100.774 81.8673 100.774Z" fill="#12173F"/>
<path d="M84.4106 92.4001C84.1748 92.4001 83.9439 92.2831 83.8076 92.0698C83.7114 91.9191 74.3609 76.9896 84.0225 70.7468C84.3545 70.5303 84.7955 70.6281 85.0103 70.9584C85.2252 71.2904 85.129 71.733 84.7986 71.9463C76.3157 77.429 84.9253 91.1638 85.0135 91.3017C85.2252 91.6336 85.1274 92.0762 84.7938 92.2879C84.6752 92.3633 84.5421 92.4001 84.4106 92.4001Z" fill="#12173F"/>
<path d="M77.892 123.737C77.6915 123.737 77.4911 123.654 77.35 123.489C77.1014 123.199 71.2531 116.305 72.2922 109.674C72.7525 106.736 74.4907 104.326 77.459 102.506C77.7974 102.299 78.2351 102.406 78.442 102.742C78.6489 103.08 78.543 103.519 78.2063 103.725C75.6133 105.312 74.0995 107.387 73.705 109.89C72.7653 115.865 78.3763 122.49 78.434 122.556C78.6906 122.855 78.6569 123.306 78.357 123.563C78.2223 123.68 78.0556 123.737 77.892 123.737Z" fill="#12173F"/>
<path d="M250.54 193.677H286.273C292.676 172.511 294.24 151.452 286.273 130.66H254.038L250.54 193.677Z" fill="#F7989C"/>
<path d="M162.483 78.187C209.393 80.2252 213.526 120.921 212.389 126.09C216.507 123.502 210.178 105.761 214.366 103.259C219.07 100.45 227.006 101.827 231.497 98.6297C209.126 54.7536 188.46 54.7536 162.094 58.777C146.683 61.1295 150.95 77.6867 162.483 78.187Z" fill="#F7989C"/>
<path d="M277.283 151.707C273.977 143.033 277.697 141.807 275.927 132.491C274.354 124.217 274.07 109.594 264.389 101.333C261.939 99.2423 257.934 97.1448 250.542 97.9659C242.445 91.6092 233.398 93.4806 224.761 96.428C221.531 95.6647 215.437 96.226 213.72 99.6769C213.643 99.717 213.566 99.7539 213.491 99.794C211.117 101.034 209.956 102.905 209.684 104.889C208.978 105.522 208.358 106.367 207.881 107.477C200.258 125.23 197.022 142.203 190.024 160.21C184.773 162.169 181.348 162.724 174.19 167.192C161.945 168.89 153.021 161.372 148.446 157.297C140.237 149.983 130.272 146.605 124.186 151.977C119.736 155.904 121.596 163.454 135.063 178.151C156.537 201.584 169.998 195.898 188.653 198.819C217.1 203.276 254.118 193.678 254.118 193.678L266.001 160.048C271.536 163.025 280.061 158.992 277.283 151.707Z" fill="#F7989C"/>
<path d="M237.878 160.99C236.754 160.99 235.646 160.776 234.559 160.347C232.078 159.372 230.32 157.557 229.334 154.958C225.482 144.801 234.191 123.965 242.174 108.277C245.824 101.103 248.951 98.2209 249.083 98.1022C249.376 97.8392 249.825 97.86 250.09 98.1503C250.356 98.4405 250.335 98.8928 250.043 99.159C250.013 99.1862 246.963 102.015 243.447 108.925C232.185 131.056 227.766 146.799 230.668 154.451C231.518 156.691 232.96 158.186 235.08 159.02C237.198 159.854 239.432 159.717 241.714 158.612C249.803 154.7 257.716 138.968 261.645 126.006C261.759 125.63 262.157 125.415 262.537 125.53C262.914 125.644 263.128 126.043 263.013 126.422C259.916 136.638 252.076 155.185 242.338 159.898C240.837 160.626 239.345 160.99 237.878 160.99Z" fill="#12173F"/>
<path d="M218.152 158C214.785 158 212.245 157.07 210.481 155.205C203.37 147.692 211.444 126.593 219.568 107.408C224.097 96.7168 229.198 94.5792 229.413 94.4927C229.777 94.3531 230.194 94.5247 230.341 94.8919C230.489 95.2592 230.309 95.6745 229.942 95.822C229.899 95.8381 225.147 97.9019 220.885 107.966C212.352 128.115 205.311 147.663 211.518 154.223C214.512 157.389 220.668 157.326 229.817 154.036C230.189 153.904 230.596 154.095 230.731 154.467C230.864 154.838 230.672 155.247 230.301 155.381C225.447 157.126 221.412 158 218.152 158Z" fill="#12173F"/>
<path d="M231.497 172.113C231.287 172.113 231.081 172.021 230.938 171.845C219.214 157.188 202.99 158.301 190.166 160.91C189.78 160.99 189.403 160.739 189.324 160.352C189.246 159.966 189.496 159.589 189.882 159.509C203.106 156.823 219.846 155.69 232.056 170.95C232.302 171.258 232.251 171.709 231.943 171.956C231.81 172.062 231.653 172.113 231.497 172.113Z" fill="#12173F"/>
<path d="M159.861 68.511C159.493 68.511 159.18 68.2272 159.149 67.8535C159.117 67.4607 159.412 67.1159 159.805 67.0854C165.07 66.6653 168.433 65.2413 169.799 62.8551C171.226 60.3631 169.926 57.6162 169.911 57.5889C169.74 57.2345 169.887 56.808 170.242 56.6348C170.598 56.4648 171.026 56.6107 171.196 56.9667C171.265 57.1062 172.835 60.4257 171.039 63.5655C169.424 66.3863 165.681 68.0492 159.918 68.5078C159.9 68.5094 159.881 68.511 159.861 68.511Z" fill="#12173F"/>
<path d="M132.379 173.867C132.069 173.867 131.784 173.664 131.693 173.353C131.673 173.29 129.8 167.012 123.652 160.121C123.389 159.826 123.415 159.374 123.71 159.113C124.005 158.851 124.456 158.875 124.719 159.17C131.098 166.321 132.987 172.687 133.065 172.956C133.174 173.335 132.956 173.731 132.578 173.842C132.512 173.858 132.445 173.867 132.379 173.867Z" fill="#12173F"/>
<path d="M222.225 152.334C222.161 152.334 222.097 152.326 222.035 152.307C221.655 152.203 221.432 151.808 221.536 151.428C221.563 151.327 224.309 141.221 221.258 136.879C220.45 135.729 219.32 135.112 217.801 134.996C217.408 134.966 217.113 134.623 217.144 134.228C217.173 133.835 217.524 133.513 217.91 133.571C219.855 133.718 221.376 134.555 222.429 136.059C225.866 140.955 223.035 151.371 222.913 151.812C222.825 152.126 222.538 152.334 222.225 152.334Z" fill="#12173F"/>
<path d="M242.088 155.319C242.001 155.319 241.913 155.303 241.826 155.269C241.459 155.125 241.278 154.711 241.422 154.344C241.459 154.249 245.131 144.772 242.549 140.654C241.86 139.554 240.782 138.962 239.256 138.843C238.863 138.814 238.568 138.471 238.598 138.077C238.629 137.684 238.964 137.363 239.366 137.419C241.348 137.572 242.827 138.404 243.762 139.895C246.724 144.623 242.915 154.449 242.751 154.865C242.642 155.147 242.373 155.319 242.088 155.319Z" fill="#12173F"/>
<path d="M261.219 160.743C261.156 160.743 261.095 160.735 261.033 160.718C260.673 160.621 252.224 158.266 251.246 151.003C251.193 150.612 251.467 150.253 251.858 150.201C252.261 150.128 252.61 150.423 252.662 150.814C253.512 157.129 261.326 159.318 261.405 159.34C261.786 159.443 262.011 159.836 261.908 160.216C261.822 160.535 261.533 160.743 261.219 160.743Z" fill="#12173F"/>
<path d="M151.141 191.958C150.982 192.025 150.801 192.035 150.626 191.974C150.254 191.844 150.059 191.436 150.189 191.063L151.3 188.074C151.431 187.702 151.839 187.506 152.211 187.636C152.583 187.766 152.778 188.173 152.649 188.547L151.537 191.536C151.468 191.733 151.321 191.882 151.141 191.958Z" fill="white"/>
<path d="M192.456 38.1712C192.317 38.1712 192.176 38.1311 192.052 38.0461C191.728 37.8216 191.645 37.3774 191.869 37.0518L200.401 24.6593C200.625 24.3337 201.069 24.2536 201.395 24.4749C201.719 24.6994 201.802 25.1436 201.578 25.4691L193.046 37.8617C192.907 38.0637 192.684 38.1712 192.456 38.1712Z" fill="#FFE86D"/>
<path d="M200.987 44.1863C200.816 44.1863 200.644 44.1253 200.508 44.0003C200.216 43.7357 200.194 43.2851 200.458 42.9916L205.054 37.9226C205.32 37.6308 205.771 37.6083 206.064 37.8745C206.358 38.1407 206.379 38.5897 206.114 38.8832L201.518 43.9505C201.376 44.1061 201.182 44.1863 200.987 44.1863Z" fill="#FFE86D"/>
<path d="M41.9056 177.141C41.6475 177.141 41.3973 176.999 41.2706 176.754L36.2161 166.969C36.0349 166.619 36.1728 166.188 36.5224 166.007C36.872 165.824 37.3033 165.964 37.4845 166.313L42.5391 176.098C42.7203 176.448 42.5824 176.879 42.2328 177.06C42.1285 177.115 42.0163 177.141 41.9056 177.141Z" fill="#FFE86D"/>
<path d="M169.174 162.724C192.533 162.724 211.47 143.788 211.47 120.428C211.47 97.0681 192.533 78.1313 169.174 78.1313C145.814 78.1313 126.877 97.0681 126.877 120.428C126.877 143.788 145.814 162.724 169.174 162.724Z" fill="#12173F"/>
<path d="M169.174 150.337C185.692 150.337 199.082 136.946 199.082 120.428C199.082 103.91 185.692 90.519 169.174 90.519C152.655 90.519 139.265 103.91 139.265 120.428C139.265 136.946 152.655 150.337 169.174 150.337Z" fill="white"/>
<path d="M169.174 151.05C152.288 151.05 138.551 137.314 138.551 120.428C138.551 103.542 152.289 89.804 169.174 89.804C186.058 89.804 199.796 103.542 199.796 120.428C199.796 137.314 186.059 151.05 169.174 151.05ZM169.174 91.2328C153.077 91.2328 139.98 104.331 139.98 120.428C139.98 136.525 153.077 149.621 169.174 149.621C185.271 149.621 198.367 136.525 198.367 120.428C198.367 104.331 185.272 91.2328 169.174 91.2328Z" fill="#12173F"/>
<path d="M169.174 144.426C168.779 144.426 168.458 144.107 168.458 143.711C168.458 143.316 168.777 142.995 169.174 142.995C181.617 142.995 191.741 132.872 191.741 120.428C191.741 107.984 181.617 97.8606 169.174 97.8606C168.779 97.8606 168.458 97.5415 168.458 97.1454C168.458 96.7509 168.777 96.4302 169.174 96.4302C182.406 96.4302 193.171 107.195 193.171 120.428C193.171 133.659 182.406 144.426 169.174 144.426Z" fill="#283071"/>
</svg>
